<svg xmlns="http://www.w3.org/2000/svg" viewBox="0 0 235.97 32.87"><defs><style>.cls-1,.cls-2{fill:#fff;}.cls-2{stroke:#fff;stroke-miterlimit:22.93;stroke-width:0.22px;}</style></defs><g id="Layer_2" data-name="Layer 2"><g id="Layer_1-2" data-name="Layer 1"><g id="Layer_2-2" data-name="Layer 2"><g id="Layer_1-2-2" data-name="Layer 1-2"><path class="cls-1" d="M27,.17A6.82,6.82,0,0,1,28.29.12a3.21,3.21,0,0,1,1.14.3,2.33,2.33,0,0,1,.86.73,2.74,2.74,0,0,1,.45,1.23,5.51,5.51,0,0,1-.09,1.9,11.37,11.37,0,0,1-.87,2.56,34,34,0,0,1-2.23,4c-.91,1.44-1.89,2.92-2.92,4.44-1.12,1.69-2.22,3.37-3.28,5a27,27,0,0,0-2.49,4.77c-.18.43-.34.86-.48,1.3a8.24,8.24,0,0,0-.32,1.37,6.46,6.46,0,0,0,0,1.39,4,4,0,0,0,.36,1.32.25.25,0,0,1,0,.33l-.07,0a.25.25,0,0,1-.36-.05l0,0a3.85,3.85,0,0,1-.66-1.42A8.3,8.3,0,0,1,17,27.62a8.2,8.2,0,0,1,.11-1.71,12.08,12.08,0,0,1,.38-1.55,16.32,16.32,0,0,1,1-2.41c.4-.84.86-1.69,1.38-2.56s1.07-1.75,1.67-2.66L23.36,14q1.45-2.13,2.76-4.19A29.31,29.31,0,0,0,28.21,6a14,14,0,0,0,1.12-3.34c.11-.86,0-1.43-.33-1.73A2.2,2.2,0,0,0,27.25.63a10.85,10.85,0,0,0-4.12,1.68A33.69,33.69,0,0,0,19.7,4.8q-1.78,1.47-3.58,3.27c-1.2,1.2-2.4,2.49-3.58,3.86s-2.32,2.8-3.4,4.28-1.93,2.7-2.81,4.09-1.68,2.77-2.41,4.16A44.39,44.39,0,0,0,2,28.55a27.78,27.78,0,0,0-1.3,4,.23.23,0,0,1-.28.25.29.29,0,0,1-.28-.28,13.84,13.84,0,0,1,.41-5A36.22,36.22,0,0,1,2.52,22a55.11,55.11,0,0,1,3.81-7c1.49-2.32,3-4.48,4.54-6.49.2-.26.43-.52.68-.79A4.74,4.74,0,0,1,12.37,7a2.33,2.33,0,0,1,.93-.31,1.76,1.76,0,0,1,1,.25.24.24,0,0,1,.15.21.26.26,0,0,1-.08.25q-2.53,2.88-5.1,6.42a70.6,70.6,0,0,0-4.6,7.27,44.44,44.44,0,0,0-2.81,6.31,46.71,46.71,0,0,1,2.92-5.78c1.16-1.93,2.43-3.84,3.82-5.71q1.65-2.19,3.43-4.29t3.61-3.89q1.83-1.81,3.63-3.3a34.77,34.77,0,0,1,3.47-2.55A18.72,18.72,0,0,1,25,.75a8.19,8.19,0,0,1,2-.58"/><path class="cls-1" d="M30,18.72a5.36,5.36,0,0,0,.1-1.06,2.24,2.24,0,0,0-1,.36,2.88,2.88,0,0,0,.89.7m-1.58,2.77a3.15,3.15,0,0,0,.85-1,7.29,7.29,0,0,0,.56-1.2,3.34,3.34,0,0,1-1.18-.93,4.78,4.78,0,0,0-.45.45,6.5,6.5,0,0,0-.46.61c-.14.23-.28.46-.4.69a2.18,2.18,0,0,0-.21.7c-.07.46,0,.76.31.89a1,1,0,0,0,1-.21Zm0-5.31a1.68,1.68,0,0,0,.07.59,1.56,1.56,0,0,1,1.45-.13,1.4,1.4,0,0,0-.82-.86.48.48,0,0,0-.73.4Zm9.67.82a.28.28,0,0,1,.22,0,.26.26,0,0,1,.16.13.28.28,0,0,1,0,.22.27.27,0,0,1-.11.18,21,21,0,0,1-3,1.5,9,9,0,0,1-3.18.74,5.57,5.57,0,0,1-1,0,5.11,5.11,0,0,1-.86-.2,8.57,8.57,0,0,1-.61,1.3A3.16,3.16,0,0,1,28.77,22a1.68,1.68,0,0,1-1.34.42,1.16,1.16,0,0,1-.94-.92,2.92,2.92,0,0,1-.11-1.14,4.91,4.91,0,0,1,1.53-3.15,6,6,0,0,1-.15-.61,1.55,1.55,0,0,1,0-.64,1,1,0,0,1,.57-.6,1.14,1.14,0,0,1,.85,0,2.27,2.27,0,0,1,.8.56A2.51,2.51,0,0,1,30.55,17a3.1,3.1,0,0,1,.1,1A5.32,5.32,0,0,1,30.49,19a4.16,4.16,0,0,0,1.68.2,8,8,0,0,0,3-.71A22.68,22.68,0,0,0,38.06,17Z"/><path class="cls-1" d="M50.3,17a.33.33,0,0,1,.24,0,.26.26,0,0,1,.16.13.36.36,0,0,1,0,.22.25.25,0,0,1-.15.18A15.33,15.33,0,0,1,47.74,19a10.4,10.4,0,0,1-2.2.54,5.43,5.43,0,0,1-1.61,0c-.45-.09-.85-.18-1.18-.27l-.67-.15a.59.59,0,0,0-.48.12,7.83,7.83,0,0,0-.78.74l-.94,1c-.26.31-.52.61-.79.89s-.52.54-.76.76a4.45,4.45,0,0,1-.62.53.71.71,0,0,1-.73.16.64.64,0,0,1-.41-.52,4.09,4.09,0,0,1-.13-.93,5,5,0,0,1,0-.95,3.79,3.79,0,0,1,.11-.66,9.56,9.56,0,0,1,.55-1.72,5.75,5.75,0,0,1,.71-1.25,1.38,1.38,0,0,1,.84-.55,1.29,1.29,0,0,1,1,.28.31.31,0,0,1,0,.43h0a13.28,13.28,0,0,0-1.51,2,7.52,7.52,0,0,0-.9,2.33,2.07,2.07,0,0,0-.12.49,1.06,1.06,0,0,0,0,.5,4.14,4.14,0,0,0,.76-.56c.24-.22.49-.48.74-.76s.52-.59.81-.89.61-.72.92-1,.54-.53.83-.78a1,1,0,0,1,.74-.3,5.69,5.69,0,0,1,.91.2c.3.09.67.18,1.1.27a5,5,0,0,0,1.54,0,8.55,8.55,0,0,0,2.06-.53A15.24,15.24,0,0,0,50.28,17"/><path class="cls-1" d="M54.63,16.34a3.62,3.62,0,0,0-1.19.43,11.24,11.24,0,0,0-1.3.86c-.43.33-.83.67-1.21,1a9.35,9.35,0,0,0-.89,1,13.24,13.24,0,0,0,1.44-.13A7.19,7.19,0,0,0,53,19.15a5,5,0,0,0,1.37-.66,3,3,0,0,0,1-1,.86.86,0,0,0,.12-.85q-.18-.33-.84-.27M93.81,17A.26.26,0,0,1,94,17a.23.23,0,0,1,.17.13.59.59,0,0,1,0,.22.23.23,0,0,1-.13.18L92,18.81c-.93.57-1.94,1.17-3,1.78s-2.13,1.17-3.16,1.67a10.55,10.55,0,0,1-2.48.91,1.33,1.33,0,0,1-.92-.12c-.25-.14-.31-.43-.2-.87a3.73,3.73,0,0,1,.18-.63,3.26,3.26,0,0,0,.18-.63c.09-.37.06-.58-.08-.62a.74.74,0,0,0-.64.23,6.88,6.88,0,0,0-1.24,1.23c-.41.52-.77,1-1.07,1.41a.27.27,0,0,1-.38,0l0,0c-.53-.33-.78-.69-.76-1.07a3.57,3.57,0,0,1,.43-1.34,21.45,21.45,0,0,1,1.73-2.61,26.2,26.2,0,0,0,1.77-2.54A9.38,9.38,0,0,0,83,14.49a1.38,1.38,0,0,0,.19-.77c0-.19-.19-.29-.47-.29a4.16,4.16,0,0,0-1.3.34,11.69,11.69,0,0,0-2.74,1.48,22.64,22.64,0,0,0-2.54,2.14A28.64,28.64,0,0,0,73.81,20c-.71.91-1.35,1.82-1.93,2.72l-.39.64c-.13.21-.26.42-.37.64a.29.29,0,0,1-.38.15h0a1.51,1.51,0,0,1-.74-.58,1.34,1.34,0,0,1-.22-.78,2.61,2.61,0,0,1,.4-1.38c.26-.44.51-.85.76-1.22l.77-1.26q.42-.66.81-1.32c.26-.44.5-.87.71-1.3a8.6,8.6,0,0,0,.51-1.21A2.14,2.14,0,0,0,73.88,14a.89.89,0,0,0-.41-.62,1.61,1.61,0,0,0-.81-.22,4.21,4.21,0,0,0-1,.12,9.46,9.46,0,0,0-2.23.81c-.82.4-1.7.89-2.64,1.46s-1.91,1.21-2.92,1.9-2,1.39-3,2.1-2.24,1.56-3.34,2.31-2.15,1.42-3.17,2a25.08,25.08,0,0,1-2.83,1.44,6.15,6.15,0,0,1-2.31.54,2.06,2.06,0,0,1-1.77-.71,3.12,3.12,0,0,1-.68-1.83A5,5,0,0,1,47.14,21a8.23,8.23,0,0,1,1.27-2.13,10,10,0,0,1,1.86-1.75A8,8,0,0,1,52.42,16a8.43,8.43,0,0,1,1-.2,5.9,5.9,0,0,1,1.19-.07,3.53,3.53,0,0,1,1.06.23.91.91,0,0,1,.56.7,1.47,1.47,0,0,1,0,.66,2.37,2.37,0,0,1-.3.62,3.12,3.12,0,0,1-.46.56,2.92,2.92,0,0,1-.5.43,6.6,6.6,0,0,1-1.17.63,6.92,6.92,0,0,1-1.34.41,8.29,8.29,0,0,1-1.4.2c-.47,0-.92.05-1.33.05a12,12,0,0,0-1,1.45A6.12,6.12,0,0,0,48,23.39a2.08,2.08,0,0,0,.1,1.37c.17.34.58.5,1.22.48a5.49,5.49,0,0,0,2.18-.55,25.87,25.87,0,0,0,2.72-1.4c1-.57,2-1.23,3.1-2L60.61,19l3.13-2.16c1-.71,2-1.36,3-1.94a30.47,30.47,0,0,1,2.76-1.49,9.94,9.94,0,0,1,2.24-.85,3.72,3.72,0,0,1,2.06.2,2,2,0,0,1,1.11,1.75,4.31,4.31,0,0,1,0,1.19A11.55,11.55,0,0,1,74.54,17a11.88,11.88,0,0,1-.79,2,28.86,28.86,0,0,1,2-2.17,27.16,27.16,0,0,1,2.54-2.12A14.84,14.84,0,0,1,81,13.19a5.23,5.23,0,0,1,1.35-.39,2.24,2.24,0,0,1,1.12.08,1,1,0,0,1,.61.69,2.84,2.84,0,0,1-.14,1.5,20,20,0,0,1-1.06,2.36c-.46.89-.95,1.78-1.45,2.66a1.58,1.58,0,0,1,.56-.36,1,1,0,0,1,1,0c.28.17.38.5.3,1a2.3,2.3,0,0,1-.17.66c-.07.22-.13.44-.2.66a.75.75,0,0,0,0,.41c0,.06.17.06.41,0a5.81,5.81,0,0,0,1.4-.43c.58-.25,1.22-.54,1.92-.89s1.4-.74,2.14-1.16,1.44-.82,2.1-1.22l1.78-1.09Z"/><path class="cls-1" d="M111.26,3.34a3.67,3.67,0,0,0,.49-.89c0-.18,0-.27-.1-.28a1,1,0,0,0-.51.18l-.78.46c-.9.62-1.76,1.26-2.57,1.92s-1.66,1.35-2.47,2.07-1.62,1.48-2.41,2.25a66.85,66.85,0,0,0-4.85,5.25c.94-.64,1.87-1.28,2.78-1.92s1.8-1.27,2.66-1.91c1.06-.79,2-1.57,3-2.33s1.74-1.48,2.44-2.16c.42-.37.84-.79,1.26-1.24a9.91,9.91,0,0,0,1.09-1.4M96.14,19.25c0-.29-.09-.42-.27-.38a1.91,1.91,0,0,0-.61.29c-.23.18-.46.37-.67.56a3.64,3.64,0,0,0-.43.45H96a2.41,2.41,0,0,1,.1-.43,4,4,0,0,0,0-.49ZM91.58,23.9a4,4,0,0,0,1.31-.38,6,6,0,0,0,1.19-.76,7.87,7.87,0,0,0,1-1,6.33,6.33,0,0,0,.71-1.06H93.67l-.33.45-.33.44a.23.23,0,0,1-.3.12l0,0a.88.88,0,0,1-.62-.69l-.53.2a3.26,3.26,0,0,0-.53.26,1.93,1.93,0,0,0-.84.81,1.23,1.23,0,0,0-.12.82,1,1,0,0,0,.52.61,1.63,1.63,0,0,0,1,.2ZM111.42,1.36c.75,0,1,.37.92,1.12a2.85,2.85,0,0,1-.46,1,10.72,10.72,0,0,1-.81,1.07c-.3.35-.6.69-.91,1s-.58.61-.82.83c-.73.68-1.56,1.41-2.49,2.18s-1.93,1.55-3,2.34-2.2,1.62-3.37,2.43S98.14,14.91,97,15.68c-.39.51-.77,1-1.13,1.54s-.74,1.05-1.11,1.6a2.42,2.42,0,0,1,.51-.38,3.85,3.85,0,0,1,.66-.28,1.78,1.78,0,0,1,.69-.05,1.11,1.11,0,0,1,.62.31,1.25,1.25,0,0,1,.31.78,3.33,3.33,0,0,1-.08.84,16.07,16.07,0,0,0,3.43-.77A23.13,23.13,0,0,0,105.5,17a.28.28,0,0,1,.22,0,.26.26,0,0,1,.16.13.41.41,0,0,1,0,.22.27.27,0,0,1-.11.18q-1.45.88-2.67,1.47c-.82.38-1.58.69-2.28.94a12.51,12.51,0,0,1-2,.52,13.73,13.73,0,0,1-1.69.23c-.16.29-.31.55-.47.8a4.34,4.34,0,0,1-.56.72A8.19,8.19,0,0,1,94,23.88a4.52,4.52,0,0,1-2.54.61A2.4,2.4,0,0,1,90,24.06a1.44,1.44,0,0,1-.63-.94A1.64,1.64,0,0,1,89.6,22a3,3,0,0,1,1.09-1,6.09,6.09,0,0,1,.63-.3l.69-.23a5.14,5.14,0,0,1,.43-1.25,13.15,13.15,0,0,1,.79-1.42,44.52,44.52,0,0,1,4.13-5.54,62.08,62.08,0,0,1,5-5c.77-.71,1.54-1.38,2.31-2A27.55,27.55,0,0,1,107,3.55c.32-.23.66-.44,1-.64s.76-.46,1.17-.68a10.81,10.81,0,0,1,1.2-.55,3.48,3.48,0,0,1,1-.32Z"/><path class="cls-1" d="M108.06,16.77a3.7,3.7,0,0,0-1.14.73c-.41.35-.73.65-1,.89l.56-.07a2.84,2.84,0,0,0,.57-.1,3.39,3.39,0,0,0,.87-.33,2,2,0,0,0,.71-.59c.22-.33.24-.52.05-.58a1.08,1.08,0,0,0-.64.05m7.12.23a.45.45,0,0,1,.23,0,.31.31,0,0,1,.17.13.41.41,0,0,1,0,.22.25.25,0,0,1-.15.18l-2.1,1.25c-.73.44-1.49.87-2.27,1.29s-1.56.8-2.35,1.15a13.9,13.9,0,0,1-2.26.83,7.21,7.21,0,0,1-1.23.23,1.67,1.67,0,0,1-1.11-.23,1.33,1.33,0,0,1-.56-.61,2,2,0,0,1-.17-.81,3,3,0,0,1,.12-.84,6.09,6.09,0,0,1,.28-.78,5.24,5.24,0,0,1,.79-1.19,6.2,6.2,0,0,1,1.11-1,5.58,5.58,0,0,1,1.3-.63,3.25,3.25,0,0,1,1.42-.11c.6.09.9.32.92.69a1.44,1.44,0,0,1-.46,1.09,2.17,2.17,0,0,1-.74.54,6,6,0,0,1-1,.38,7.1,7.1,0,0,1-1.78.2c-.14.18-.28.38-.43.6a4,4,0,0,0-.4.69,1.64,1.64,0,0,0-.23.94.48.48,0,0,0,.35.41,1.23,1.23,0,0,0,.71,0,5.78,5.78,0,0,0,.92-.19,17.74,17.74,0,0,0,2.21-.81q1.15-.51,2.31-1.14c.77-.42,1.52-.84,2.26-1.27s1.53-.81,2.16-1.21Z"/><path class="cls-1" d="M128.09,17a.31.31,0,0,1,.23,0,.28.28,0,0,1,.15.13.41.41,0,0,1,0,.22.26.26,0,0,1-.12.18l-1.37.81a15.91,15.91,0,0,1-1.6.8,12,12,0,0,1-1.65.6,4.06,4.06,0,0,1-1.55.16,3.22,3.22,0,0,1-1.17-.34,2.47,2.47,0,0,1-.91-.85,2.75,2.75,0,0,0-.62-.74c-.18-.12-.5,0-1,.32a7.66,7.66,0,0,0-1.3,1.18c-.38.44-.74.89-1.08,1.36l-.38.62c-.12.2-.24.41-.38.63l-.33.58-.33.54c-.06.18-.19.23-.39.17a1.1,1.1,0,0,1-.73-.79,2,2,0,0,1,.17-1.16,4.85,4.85,0,0,1,.66-1.12c.28-.38.55-.72.79-1l.73-.93a6.44,6.44,0,0,0,.62-.92c0-.09.09-.18.13-.27a.77.77,0,0,0,.1-.29,2.64,2.64,0,0,0-.61.23c-.25.13-.5.28-.74.43a.31.31,0,0,1-.23,0,.31.31,0,0,1-.17-.13.33.33,0,0,1-.05-.22.38.38,0,0,1,.15-.18l1-.51a1.47,1.47,0,0,1,1-.21.63.63,0,0,1,.53.52,2.68,2.68,0,0,1,0,.8,4.72,4.72,0,0,1-.3.92l.6-.51a6.48,6.48,0,0,1,.67-.5,4.37,4.37,0,0,1,.69-.33,1,1,0,0,1,.65,0,.84.84,0,0,1,.51.39c.12.2.24.41.35.63a3.28,3.28,0,0,0,.51.71,1.41,1.41,0,0,0,1,.41,3.26,3.26,0,0,0,1.42-.18,11.21,11.21,0,0,0,1.58-.61c.53-.24,1-.5,1.54-.78A12.25,12.25,0,0,0,128.1,17"/><path class="cls-1" d="M143.43,8.82a2.93,2.93,0,0,1,1.21-.43,1.89,1.89,0,0,1,1.1.18,1.4,1.4,0,0,1,.69.71,1.88,1.88,0,0,1,0,1.28,4.69,4.69,0,0,1-.59,1.49,9.35,9.35,0,0,1-1,1.4,8.86,8.86,0,0,1-1.23,1.22,8.77,8.77,0,0,1-1.32.94,2.53,2.53,0,0,1,1,1.17,3.53,3.53,0,0,1,.25,1.47,4.81,4.81,0,0,1-.32,1.72,9,9,0,0,1-.8,1.65,7.46,7.46,0,0,1-1.14,1.43,6.79,6.79,0,0,1-1.37,1.08,4.37,4.37,0,0,1-1.29.52,3.19,3.19,0,0,1-1.34.07,2.25,2.25,0,0,1-1.12-.51,1.88,1.88,0,0,1-.58-1.24,3.76,3.76,0,0,1,.09-1.25,5.58,5.58,0,0,1,.41-1.19.24.24,0,0,1,.29-.17l.09,0a.27.27,0,0,1,.14.34l0,.05a6,6,0,0,0-.36,1,3,3,0,0,0-.06,1.11,1.3,1.3,0,0,0,.46.92,1.33,1.33,0,0,0,.84.26,2.49,2.49,0,0,0,1-.21,4.08,4.08,0,0,0,.91-.51,6.22,6.22,0,0,0,1-1,8.05,8.05,0,0,0,1.5-2.72,7.66,7.66,0,0,0,.35-1.43,4.11,4.11,0,0,0,0-1.31,1.38,1.38,0,0,0-.56-1l-.5.2a1.55,1.55,0,0,1-.52.1.78.78,0,0,1-.53-.14.39.39,0,0,1-.17-.33.58.58,0,0,1,.15-.37.73.73,0,0,1,.48-.25,1.19,1.19,0,0,1,.53,0l.53.13a6.5,6.5,0,0,0,1.17-.92A12,12,0,0,0,144,13a7.87,7.87,0,0,0,.87-1.52,4,4,0,0,0,.38-1.49c0-.57-.09-.88-.41-.94a1.48,1.48,0,0,0-1,.28,4.93,4.93,0,0,0-.93.83,4.22,4.22,0,0,0-.75,1.32c0,.15-.17.21-.37.16a.23.23,0,0,1-.16-.36,5.11,5.11,0,0,1,.84-1.49,5.4,5.4,0,0,1,1.07-.95"/><path class="cls-1" d="M156.3,8.49a2.18,2.18,0,0,1,2.13.33,2.49,2.49,0,0,1,.64,2.11,10.42,10.42,0,0,1-.59,2.71,23.59,23.59,0,0,1-1.06,2.6c-.3.66-.64,1.34-1,2a21.08,21.08,0,0,1-1.19,2A19.26,19.26,0,0,1,153.89,22a8.89,8.89,0,0,1-1.42,1.39,5.58,5.58,0,0,1-1.2.71,2.65,2.65,0,0,1-1.3.21,1.62,1.62,0,0,1-1.42-1,3.83,3.83,0,0,1-.33-1.77,8.94,8.94,0,0,1,.29-2.18,17.47,17.47,0,0,1,.76-2.21c.3-.72.63-1.42,1-2.11s.77-1.31,1.14-1.88a12.93,12.93,0,0,1,1.11-1.5,5.61,5.61,0,0,1,1.33-1.24,2.24,2.24,0,0,1,.91-.35.83.83,0,0,1,.84.35c.16.22.12.39-.1.5a4.34,4.34,0,0,0-1.25,1,14.87,14.87,0,0,0-1.42,1.75c-.35.52-.72,1.12-1.09,1.78a20.72,20.72,0,0,0-1,2,21.23,21.23,0,0,0-.82,2.13,9.81,9.81,0,0,0-.45,2,3.24,3.24,0,0,0,.08,1.42.92.92,0,0,0,.56.61,1.42,1.42,0,0,0,.93-.1,4.21,4.21,0,0,0,1.17-.74,7.61,7.61,0,0,0,1.34-1.32c.42-.53.84-1.1,1.23-1.7s.77-1.23,1.13-1.88.67-1.29,1-1.93c.18-.38.36-.78.55-1.22s.35-.89.51-1.34a13.32,13.32,0,0,0,.39-1.37,6.93,6.93,0,0,0,.2-1.29,2,2,0,0,0-.44-1.6,1.62,1.62,0,0,0-1.6-.24,4.33,4.33,0,0,0-1,.39,6.27,6.27,0,0,0-.83.6.27.27,0,0,1-.38,0l0,0a.26.26,0,0,1,0-.39l0,0a9.43,9.43,0,0,1,1-.64,4.32,4.32,0,0,1,1.05-.41"/><path class="cls-1" d="M190.74,5.19a3.62,3.62,0,0,0,.54-1.72,2.17,2.17,0,0,0-.38-1.35,2.3,2.3,0,0,0-1.17-.84A5.11,5.11,0,0,0,187.87,1a10.69,10.69,0,0,0-2.25.38,17.17,17.17,0,0,0-2.21.81,23.44,23.44,0,0,0-2.11,1.1c-.68.41-1.32.82-1.91,1.24a38.82,38.82,0,0,0-3.93,3.19c-1.37,1.24-2.7,2.58-4,4a21.1,21.1,0,0,0,3.88.39,22.29,22.29,0,0,0,4-.26,21.52,21.52,0,0,0,3.86-.94,16.17,16.17,0,0,0,3.53-1.7A17.33,17.33,0,0,0,189,7.42a9.12,9.12,0,0,0,1.78-2.27M187.69.33a6.18,6.18,0,0,1,2.17.36,3.45,3.45,0,0,1,1.49,1,2.54,2.54,0,0,1,.56,1.58,4.18,4.18,0,0,1-.59,2.1,8.82,8.82,0,0,1-1.87,2.42A15.53,15.53,0,0,1,187,9.72a17.55,17.55,0,0,1-3.7,1.79,21.13,21.13,0,0,1-4.06,1,25.3,25.3,0,0,1-4.17.23,25.48,25.48,0,0,1-4.08-.46c-1,1.16-2.07,2.41-3.1,3.74a37.2,37.2,0,0,0-2.81,4.14c.33-.37.69-.75,1.06-1.14a6.37,6.37,0,0,1,1.19-1,2,2,0,0,1,.79-.33.85.85,0,0,1,.66.13,1,1,0,0,1,.41.83,5.57,5.57,0,0,1,0,1,4.18,4.18,0,0,0,0,1,.66.66,0,0,0,.31.53,1,1,0,0,0,.68.06,4.53,4.53,0,0,0,.9-.21c.31-.1.61-.21.89-.33l.66-.28a32.85,32.85,0,0,0,3.08-1.55c1-.61,2.09-1.22,3.1-1.84a.26.26,0,0,1,.21,0,.28.28,0,0,1,.17.13.41.41,0,0,1,0,.22.25.25,0,0,1-.11.18q-1.56.93-3.15,1.83c-1.07.61-2.14,1.16-3.22,1.67-.24.11-.54.23-.88.36a9.15,9.15,0,0,1-1.05.33,4.84,4.84,0,0,1-1.07.15,1.87,1.87,0,0,1-.93-.18,1.21,1.21,0,0,1-.66-.91c-.06-.41-.11-.82-.13-1.24a2.11,2.11,0,0,0-.17-.89c-.08-.15-.35-.06-.79.27a9.89,9.89,0,0,0-1.42,1.4c-.48.58-.9,1.09-1.25,1.53-.18.24-.35.49-.51.73s-.33.48-.48.72a.27.27,0,0,1-.5,0,2,2,0,0,1-.23-.94,4.27,4.27,0,0,1,.12-1,5.16,5.16,0,0,1,.35-1l.42-.87a38.09,38.09,0,0,1,2.55-4C167,14.26,168,13,169,11.84c-.44-.11-.88-.23-1.32-.38L166.34,11c-.62.72-1.31,1.58-2.07,2.56s-1.49,2-2.19,3-1.34,2.08-1.91,3.1a14.18,14.18,0,0,0-1.23,2.76,5.64,5.64,0,0,0-.24,1.63,2,2,0,0,0,.51,1.34.28.28,0,0,1,0,.38.22.22,0,0,1-.31.1l-.06-.05a1.82,1.82,0,0,1-.76-1,4.91,4.91,0,0,1-.28-1.37,5.8,5.8,0,0,1,.06-1.44,10.58,10.58,0,0,1,.28-1.24,16.35,16.35,0,0,1,1.11-2.67c.47-.92,1-1.84,1.58-2.74s1.2-1.78,1.85-2.62,1.27-1.64,1.86-2.36c-1.45-.46-3-.9-4.52-1.32a29.21,29.21,0,0,0-4.55-.86,15.67,15.67,0,0,0-4.16.1A6.61,6.61,0,0,0,148,9.87a.26.26,0,0,1-.37,0l0,0a.25.25,0,0,1-.06-.35l.06-.06a7.25,7.25,0,0,1,3.53-1.65,15.85,15.85,0,0,1,4.35-.12,31.72,31.72,0,0,1,4.74.91q2.42.66,4.7,1.35c.51-.59,1-1.15,1.49-1.68s.94-1,1.38-1.45a2.34,2.34,0,0,1,1.11-.61,1.46,1.46,0,0,1,1.2.24c.2.14.21.29,0,.47-.61.57-1.2,1.16-1.76,1.76s-1.12,1.23-1.67,1.87l1.4.43,1.34.39c1.17-1.33,2.42-2.61,3.73-3.84a40.66,40.66,0,0,1,4.13-3.39,26,26,0,0,1,2.31-1.45,20.9,20.9,0,0,1,2.52-1.22A16.48,16.48,0,0,1,184.75.6a12.92,12.92,0,0,1,2.84-.23Z"/><path class="cls-1" d="M187.65,23.37a2.79,2.79,0,0,0,1.06-.53,3.4,3.4,0,0,0-1.19,0,1.48,1.48,0,0,0-.53.23c-.11.08-.16.16-.15.23s.09.11.22.13a1.34,1.34,0,0,0,.59-.1m9.08-15a1.64,1.64,0,0,1,1.15.46,2.22,2.22,0,0,1,.6,1.09,5.59,5.59,0,0,1-.65,3.31,22.53,22.53,0,0,1-2.42,4,33.55,33.55,0,0,1-2.59,3,19.15,19.15,0,0,1-2.76,2.41c.62.26,1.19.51,1.73.76a5.77,5.77,0,0,0,1.87.46.26.26,0,0,1,.27.23.19.19,0,0,1,0,.08.24.24,0,0,1-.22.26h-.08a5.87,5.87,0,0,1-2.14-.54,20.68,20.68,0,0,0-2-.85,4.27,4.27,0,0,1-.79.48,7.26,7.26,0,0,1-.86.38,1.7,1.7,0,0,1-1.09,0,.66.66,0,0,1-.46-.47.76.76,0,0,1,.2-.65,1.71,1.71,0,0,1,.89-.49,2.6,2.6,0,0,1,1-.13,3.68,3.68,0,0,1,.92.19,18.22,18.22,0,0,0,2.39-2.17,27.91,27.91,0,0,0,2.1-2.51c.31-.4.66-.92,1.07-1.55a23,23,0,0,0,1.14-2,12.78,12.78,0,0,0,.84-2.1,4.59,4.59,0,0,0,.22-1.84c-.09-.6-.33-.94-.73-1a1.61,1.61,0,0,0-1.25.33c-.22.18-.44.37-.66.58a3.46,3.46,0,0,0-.6.78A5.28,5.28,0,0,0,193,12.5a.24.24,0,0,1-.24.24.2.2,0,0,1-.11,0,.26.26,0,0,1-.22-.29s0,0,0-.05a7.59,7.59,0,0,1,.86-1.85,8.12,8.12,0,0,1,.64-.81,5,5,0,0,1,.81-.72,5.57,5.57,0,0,1,1-.42,2.89,2.89,0,0,1,1-.21Z"/><path class="cls-1" d="M208.31,8.49a2.18,2.18,0,0,1,2.13.33,2.49,2.49,0,0,1,.64,2.11,10.42,10.42,0,0,1-.59,2.71,23.59,23.59,0,0,1-1.06,2.6c-.31.66-.64,1.34-1,2A20.28,20.28,0,0,1,205.91,22a8.89,8.89,0,0,1-1.42,1.39,5.58,5.58,0,0,1-1.2.71,2.67,2.67,0,0,1-1.31.21,1.64,1.64,0,0,1-1.42-1,4.13,4.13,0,0,1-.33-1.77,9,9,0,0,1,.3-2.18,17.47,17.47,0,0,1,.76-2.21,21.36,21.36,0,0,1,1-2.11c.38-.68.76-1.31,1.14-1.88a14.13,14.13,0,0,1,1.1-1.5,5.65,5.65,0,0,1,1.34-1.24,2,2,0,0,1,.91-.35.83.83,0,0,1,.84.35c.15.22.12.39-.1.5a4.34,4.34,0,0,0-1.25,1,13.93,13.93,0,0,0-1.42,1.75c-.35.52-.72,1.12-1.09,1.78a20.72,20.72,0,0,0-1,2,21.31,21.31,0,0,0-.83,2.13,9.79,9.79,0,0,0-.44,2,3.24,3.24,0,0,0,.08,1.42.92.92,0,0,0,.56.61,1.42,1.42,0,0,0,.93-.1,4.21,4.21,0,0,0,1.17-.74,7.91,7.91,0,0,0,1.33-1.32,19,19,0,0,0,1.24-1.7c.4-.61.77-1.23,1.12-1.88s.67-1.29,1-1.93c.18-.38.36-.78.54-1.22s.36-.89.52-1.34a13.32,13.32,0,0,0,.39-1.37,6.93,6.93,0,0,0,.2-1.29,2,2,0,0,0-.45-1.6,1.62,1.62,0,0,0-1.6-.24,4.13,4.13,0,0,0-1,.39,4.5,4.5,0,0,0-.83.6.3.3,0,0,1-.42-.11.32.32,0,0,1,0-.36,8.77,8.77,0,0,1,1-.64,4.4,4.4,0,0,1,1.06-.41"/><path class="cls-1" d="M212.4,23.37a2.79,2.79,0,0,0,1.06-.53,3.4,3.4,0,0,0-1.19,0,1.48,1.48,0,0,0-.53.23c-.11.08-.16.16-.15.23s.09.11.22.13a1.34,1.34,0,0,0,.59-.1m9.08-15a1.64,1.64,0,0,1,1.15.46,2.22,2.22,0,0,1,.6,1.09,5.59,5.59,0,0,1-.65,3.31,22.53,22.53,0,0,1-2.42,4,33.55,33.55,0,0,1-2.59,3,19.15,19.15,0,0,1-2.76,2.41c.62.26,1.19.51,1.73.76a5.77,5.77,0,0,0,1.87.46.26.26,0,0,1,.27.23.19.19,0,0,1,0,.08.24.24,0,0,1-.22.26h-.08a5.87,5.87,0,0,1-2.14-.54,20.68,20.68,0,0,0-2-.85,4.27,4.27,0,0,1-.79.48,7.26,7.26,0,0,1-.86.38,1.7,1.7,0,0,1-1.09,0,.66.66,0,0,1-.46-.47.76.76,0,0,1,.2-.65,1.71,1.71,0,0,1,.89-.49,2.6,2.6,0,0,1,1-.13,3.68,3.68,0,0,1,.92.19,18.22,18.22,0,0,0,2.39-2.17,27.91,27.91,0,0,0,2.1-2.51c.31-.4.66-.92,1.07-1.55a23,23,0,0,0,1.14-2,12.78,12.78,0,0,0,.84-2.1,4.59,4.59,0,0,0,.22-1.84c-.09-.6-.33-.94-.73-1a1.61,1.61,0,0,0-1.25.33c-.22.18-.44.37-.66.58a3.46,3.46,0,0,0-.6.78,5.2,5.2,0,0,0-.82,1.75.24.24,0,0,1-.24.24.2.2,0,0,1-.11,0,.26.26,0,0,1-.22-.29s0,0,0-.05a7.59,7.59,0,0,1,.86-1.85,8.12,8.12,0,0,1,.64-.81,5,5,0,0,1,.81-.72,5.19,5.19,0,0,1,.92-.52,2.8,2.8,0,0,1,1.07-.18Z"/><path class="cls-1" d="M233.06,8.49a2.18,2.18,0,0,1,2.13.33,2.49,2.49,0,0,1,.64,2.11,10.42,10.42,0,0,1-.59,2.71,23.59,23.59,0,0,1-1.06,2.6c-.31.66-.64,1.34-1,2A20.28,20.28,0,0,1,230.66,22a8.89,8.89,0,0,1-1.42,1.39,5.58,5.58,0,0,1-1.2.71,2.67,2.67,0,0,1-1.31.21,1.64,1.64,0,0,1-1.42-1,4.13,4.13,0,0,1-.33-1.77,9,9,0,0,1,.3-2.18,17.47,17.47,0,0,1,.76-2.21,21.36,21.36,0,0,1,1-2.11c.39-.68.76-1.31,1.14-1.88a14.13,14.13,0,0,1,1.1-1.5,5.65,5.65,0,0,1,1.34-1.24,2,2,0,0,1,.91-.35.83.83,0,0,1,.84.35c.15.22.12.39-.1.5a4.34,4.34,0,0,0-1.25,1,13.93,13.93,0,0,0-1.42,1.75c-.35.52-.72,1.12-1.09,1.78a20.72,20.72,0,0,0-1,2,21.31,21.31,0,0,0-.83,2.13,9.79,9.79,0,0,0-.44,2,3.24,3.24,0,0,0,.08,1.42.92.92,0,0,0,.56.61,1.42,1.42,0,0,0,.93-.1,4.21,4.21,0,0,0,1.17-.74,7.91,7.91,0,0,0,1.33-1.32,19,19,0,0,0,1.24-1.7c.4-.61.77-1.23,1.12-1.88s.67-1.29,1-1.93c.18-.38.36-.78.54-1.22s.36-.89.52-1.34a13.32,13.32,0,0,0,.39-1.37,6.93,6.93,0,0,0,.2-1.29,2,2,0,0,0-.45-1.6,1.62,1.62,0,0,0-1.6-.24,4.33,4.33,0,0,0-1,.39,4.5,4.5,0,0,0-.83.6.3.3,0,0,1-.42-.11.32.32,0,0,1,0-.36,8.77,8.77,0,0,1,.95-.64,4.4,4.4,0,0,1,1.06-.41"/><path class="cls-2" d="M27,.17A6.82,6.82,0,0,1,28.29.12a3.21,3.21,0,0,1,1.14.3,2.33,2.33,0,0,1,.86.73,2.74,2.74,0,0,1,.45,1.23,5.51,5.51,0,0,1-.09,1.9,11.37,11.37,0,0,1-.87,2.56,34,34,0,0,1-2.23,4c-.91,1.44-1.89,2.92-2.92,4.44-1.12,1.69-2.22,3.37-3.28,5a27,27,0,0,0-2.49,4.77c-.18.43-.34.86-.48,1.3a8.24,8.24,0,0,0-.32,1.37,6.46,6.46,0,0,0,0,1.39,4,4,0,0,0,.36,1.32.25.25,0,0,1,0,.33l-.07,0a.25.25,0,0,1-.36-.05l0,0a3.85,3.85,0,0,1-.66-1.42A8.3,8.3,0,0,1,17,27.62a8.2,8.2,0,0,1,.11-1.71,12.08,12.08,0,0,1,.38-1.55,16.32,16.32,0,0,1,1-2.41c.4-.84.86-1.69,1.38-2.56s1.07-1.75,1.67-2.66L23.36,14q1.45-2.13,2.76-4.19A29.31,29.31,0,0,0,28.21,6a14,14,0,0,0,1.12-3.34c.11-.86,0-1.43-.33-1.73A2.2,2.2,0,0,0,27.25.63a10.85,10.85,0,0,0-4.12,1.68A33.69,33.69,0,0,0,19.7,4.8q-1.78,1.47-3.58,3.27c-1.2,1.2-2.4,2.49-3.58,3.86s-2.32,2.8-3.4,4.28-1.93,2.7-2.81,4.09-1.68,2.77-2.41,4.16A44.39,44.39,0,0,0,2,28.55a27.78,27.78,0,0,0-1.3,4,.23.23,0,0,1-.28.25.29.29,0,0,1-.28-.28,13.84,13.84,0,0,1,.41-5A36.22,36.22,0,0,1,2.52,22a55.11,55.11,0,0,1,3.81-7c1.49-2.32,3-4.48,4.54-6.49.2-.26.43-.52.68-.79A4.74,4.74,0,0,1,12.37,7a2.33,2.33,0,0,1,.93-.31,1.76,1.76,0,0,1,1,.25.24.24,0,0,1,.15.21.26.26,0,0,1-.08.25q-2.53,2.88-5.1,6.42a70.6,70.6,0,0,0-4.6,7.27,44.44,44.44,0,0,0-2.81,6.31,46.71,46.71,0,0,1,2.92-5.78c1.16-1.93,2.43-3.84,3.82-5.71q1.65-2.19,3.43-4.29t3.61-3.89q1.83-1.81,3.63-3.3a34.77,34.77,0,0,1,3.47-2.55A18.72,18.72,0,0,1,25,.75,8.49,8.49,0,0,1,27,.17Z"/><path class="cls-2" d="M30,18.72a5.36,5.36,0,0,0,.1-1.06,2.24,2.24,0,0,0-1,.36A2.92,2.92,0,0,0,30,18.72Zm-1.58,2.77a3.15,3.15,0,0,0,.85-1,7.29,7.29,0,0,0,.56-1.2,3.34,3.34,0,0,1-1.18-.93,4.78,4.78,0,0,0-.45.45,6.5,6.5,0,0,0-.46.61c-.14.23-.28.46-.4.69a2.18,2.18,0,0,0-.21.7c-.07.46,0,.76.31.89a1,1,0,0,0,1-.21Zm0-5.31a1.68,1.68,0,0,0,.07.59A1.56,1.56,0,0,1,30,16.64a1.4,1.4,0,0,0-.82-.86c-.39-.15-.67,0-.74.4ZM38.1,17a.28.28,0,0,1,.22,0,.26.26,0,0,1,.16.13.28.28,0,0,1,0,.22.27.27,0,0,1-.11.18,21,21,0,0,1-3,1.5,9,9,0,0,1-3.18.74,5.57,5.57,0,0,1-1,0,5.11,5.11,0,0,1-.86-.2,8.57,8.57,0,0,1-.61,1.3A3.16,3.16,0,0,1,28.78,22a1.68,1.68,0,0,1-1.34.42,1.16,1.16,0,0,1-.94-.92,2.92,2.92,0,0,1-.11-1.14,4.91,4.91,0,0,1,1.53-3.15,6,6,0,0,1-.15-.61,1.55,1.55,0,0,1,.05-.64,1,1,0,0,1,.57-.6,1.14,1.14,0,0,1,.85,0,2.27,2.27,0,0,1,.8.56A2.51,2.51,0,0,1,30.56,17a3.1,3.1,0,0,1,.1,1A5.32,5.32,0,0,1,30.5,19a4.16,4.16,0,0,0,1.68.2,8,8,0,0,0,3-.71A21.9,21.9,0,0,0,38.06,17Z"/><path class="cls-2" d="M50.3,17a.33.33,0,0,1,.24,0,.26.26,0,0,1,.16.13.36.36,0,0,1,0,.22.25.25,0,0,1-.15.18A15.33,15.33,0,0,1,47.74,19a10.4,10.4,0,0,1-2.2.54,5.43,5.43,0,0,1-1.61,0c-.45-.09-.85-.18-1.18-.27l-.67-.15a.59.59,0,0,0-.48.12,7.83,7.83,0,0,0-.78.74l-.94,1c-.26.31-.52.61-.79.89s-.52.54-.76.76a4.45,4.45,0,0,1-.62.53.71.71,0,0,1-.73.16.64.64,0,0,1-.41-.52,4.09,4.09,0,0,1-.13-.93,5,5,0,0,1,0-.95,3.79,3.79,0,0,1,.11-.66,9.56,9.56,0,0,1,.55-1.72,5.75,5.75,0,0,1,.71-1.25,1.38,1.38,0,0,1,.84-.55,1.29,1.29,0,0,1,1,.28.31.31,0,0,1,0,.43h0a13.28,13.28,0,0,0-1.51,2,7.52,7.52,0,0,0-.9,2.33,2.07,2.07,0,0,0-.12.49,1.06,1.06,0,0,0,0,.5,4.14,4.14,0,0,0,.76-.56c.24-.22.49-.48.74-.76s.52-.59.81-.89.61-.72.92-1,.54-.53.83-.78a1,1,0,0,1,.74-.3,5.69,5.69,0,0,1,.91.2c.3.09.67.18,1.1.27a5,5,0,0,0,1.54,0,8.55,8.55,0,0,0,2.06-.53A15,15,0,0,0,50.3,17Z"/><path class="cls-2" d="M54.63,16.34a3.62,3.62,0,0,0-1.19.43,11.24,11.24,0,0,0-1.3.86c-.43.33-.83.67-1.21,1a9.35,9.35,0,0,0-.89,1,13.24,13.24,0,0,0,1.44-.13A7.19,7.19,0,0,0,53,19.15a5,5,0,0,0,1.37-.66,3,3,0,0,0,1-1,.86.86,0,0,0,.12-.85C55.35,16.4,55.07,16.3,54.63,16.34ZM93.8,17A.26.26,0,0,1,94,17a.23.23,0,0,1,.17.13.59.59,0,0,1,0,.22.23.23,0,0,1-.13.18L92,18.78c-.93.57-1.94,1.17-3,1.78s-2.13,1.17-3.16,1.67a10.55,10.55,0,0,1-2.48.91,1.33,1.33,0,0,1-.92-.12c-.25-.14-.31-.43-.2-.87a3.73,3.73,0,0,1,.18-.63,3.26,3.26,0,0,0,.18-.63c.09-.37.06-.58-.08-.62a.74.74,0,0,0-.64.23,6.88,6.88,0,0,0-1.24,1.23c-.41.52-.77,1-1.07,1.41a.27.27,0,0,1-.38,0l0,0c-.53-.33-.78-.69-.76-1.07a3.57,3.57,0,0,1,.43-1.34,21.45,21.45,0,0,1,1.73-2.61,26.2,26.2,0,0,0,1.77-2.54A9.38,9.38,0,0,0,83,14.46a1.38,1.38,0,0,0,.19-.77c0-.19-.19-.29-.47-.29a4.16,4.16,0,0,0-1.3.34,11.69,11.69,0,0,0-2.74,1.48,22.64,22.64,0,0,0-2.54,2.14A28.64,28.64,0,0,0,73.8,20c-.71.91-1.35,1.82-1.93,2.72l-.39.64c-.13.21-.26.42-.37.64a.29.29,0,0,1-.38.15h0a1.51,1.51,0,0,1-.74-.58,1.34,1.34,0,0,1-.22-.78,2.61,2.61,0,0,1,.4-1.38c.26-.44.51-.85.76-1.22l.77-1.26q.42-.66.81-1.32c.26-.44.5-.87.71-1.3a8.6,8.6,0,0,0,.51-1.21,2.14,2.14,0,0,0,.15-1.12.89.89,0,0,0-.41-.62,1.61,1.61,0,0,0-.81-.22,4.21,4.21,0,0,0-1,.12,9.46,9.46,0,0,0-2.23.81c-.82.4-1.7.89-2.64,1.46s-1.91,1.21-2.92,1.9-2,1.39-3,2.1S58.62,21,57.52,21.79s-2.15,1.42-3.17,2a25.08,25.08,0,0,1-2.83,1.44,6.15,6.15,0,0,1-2.31.54,2.06,2.06,0,0,1-1.77-.71,3.12,3.12,0,0,1-.68-1.83,5,5,0,0,1,.37-2.29,8.23,8.23,0,0,1,1.27-2.13,10,10,0,0,1,1.86-1.75,8,8,0,0,1,2.15-1.12,8.43,8.43,0,0,1,1-.2,5.9,5.9,0,0,1,1.19-.07,3.53,3.53,0,0,1,1.06.23.91.91,0,0,1,.56.7,1.47,1.47,0,0,1,0,.66,2.37,2.37,0,0,1-.3.62,3.12,3.12,0,0,1-.46.56,2.92,2.92,0,0,1-.5.43,6.6,6.6,0,0,1-1.17.63,6.92,6.92,0,0,1-1.34.41,8.29,8.29,0,0,1-1.4.2c-.47,0-.92.05-1.33.05a12,12,0,0,0-1,1.45A6.12,6.12,0,0,0,48,23.36a2.08,2.08,0,0,0,.1,1.37c.17.34.58.5,1.22.48a5.49,5.49,0,0,0,2.18-.55,25.87,25.87,0,0,0,2.72-1.4c1-.57,2-1.23,3.1-2L60.6,19l3.13-2.16c1-.71,2-1.36,3-1.94a30.47,30.47,0,0,1,2.76-1.49,9.94,9.94,0,0,1,2.25-.82,3.72,3.72,0,0,1,2.06.2,2,2,0,0,1,1.11,1.75,4.31,4.31,0,0,1,0,1.19A11.55,11.55,0,0,1,74.54,17a11.88,11.88,0,0,1-.79,2,28.86,28.86,0,0,1,2-2.17,27.16,27.16,0,0,1,2.54-2.12A14.84,14.84,0,0,1,81,13.19a5.23,5.23,0,0,1,1.35-.39,2.24,2.24,0,0,1,1.12.08,1,1,0,0,1,.61.69,2.84,2.84,0,0,1-.14,1.5,20,20,0,0,1-1.06,2.36c-.46.89-.95,1.78-1.45,2.66a1.58,1.58,0,0,1,.56-.36,1,1,0,0,1,1,0c.28.17.38.5.3,1a2.3,2.3,0,0,1-.17.66c-.07.22-.13.44-.2.66a.75.75,0,0,0,0,.41c0,.06.17.06.41,0a5.81,5.81,0,0,0,1.4-.43c.58-.25,1.22-.54,1.92-.89s1.4-.74,2.14-1.16,1.44-.82,2.1-1.22l1.78-1.09Z"/><path class="cls-2" d="M111.26,3.34a3.67,3.67,0,0,0,.49-.89c0-.18,0-.27-.1-.28a1,1,0,0,0-.51.18l-.78.46c-.9.62-1.76,1.26-2.57,1.92s-1.66,1.35-2.47,2.07-1.62,1.48-2.41,2.25a66.85,66.85,0,0,0-4.85,5.25c.94-.64,1.87-1.28,2.78-1.92s1.8-1.27,2.66-1.91c1.06-.79,2-1.57,3-2.33s1.74-1.48,2.44-2.16c.42-.37.84-.79,1.26-1.24A9.71,9.71,0,0,0,111.26,3.34ZM96.11,19.25c0-.29-.09-.42-.27-.38a1.91,1.91,0,0,0-.61.29c-.23.18-.46.37-.67.56a3.64,3.64,0,0,0-.43.45H96a2.41,2.41,0,0,1,.1-.43,3.91,3.91,0,0,0,0-.49ZM91.55,23.9a4,4,0,0,0,1.31-.38,6,6,0,0,0,1.19-.76,7.87,7.87,0,0,0,1-1,6.33,6.33,0,0,0,.71-1.06H93.64l-.33.45-.33.44a.23.23,0,0,1-.3.12l0,0A.88.88,0,0,1,92,21l-.53.2a3.26,3.26,0,0,0-.53.26,1.93,1.93,0,0,0-.84.81,1.23,1.23,0,0,0-.12.82,1,1,0,0,0,.52.61,1.59,1.59,0,0,0,1,.2ZM111.39,1.36c.75,0,1,.37.92,1.12a2.85,2.85,0,0,1-.46,1A10.72,10.72,0,0,1,111,4.55c-.3.35-.6.69-.91,1s-.58.61-.82.83c-.73.68-1.56,1.41-2.49,2.18s-1.93,1.55-3,2.34-2.2,1.62-3.37,2.43-2.34,1.58-3.53,2.35c-.39.51-.77,1-1.13,1.54s-.74,1.05-1.11,1.6a2.42,2.42,0,0,1,.51-.38,3.85,3.85,0,0,1,.66-.28,1.78,1.78,0,0,1,.69-.05,1.11,1.11,0,0,1,.62.31,1.25,1.25,0,0,1,.31.78,3.33,3.33,0,0,1-.08.84,16.07,16.07,0,0,0,3.43-.77,23.13,23.13,0,0,0,4.65-2.3.28.28,0,0,1,.22,0,.26.26,0,0,1,.16.13.41.41,0,0,1,0,.22.27.27,0,0,1-.11.18q-1.45.88-2.67,1.47c-.82.38-1.58.69-2.28.94a12.51,12.51,0,0,1-2,.52,13.73,13.73,0,0,1-1.69.23c-.16.29-.31.55-.47.8a4.34,4.34,0,0,1-.56.72,8.19,8.19,0,0,1-2.14,1.7,4.52,4.52,0,0,1-2.54.61A2.4,2.4,0,0,1,90,24.06a1.44,1.44,0,0,1-.63-.94A1.64,1.64,0,0,1,89.57,22a3,3,0,0,1,1.09-1,6.09,6.09,0,0,1,.63-.3l.69-.23a5.14,5.14,0,0,1,.43-1.25,13.15,13.15,0,0,1,.79-1.42,44.52,44.52,0,0,1,4.13-5.54,62.08,62.08,0,0,1,5-5c.77-.71,1.54-1.38,2.31-2A27.55,27.55,0,0,1,107,3.55c.32-.23.66-.44,1-.64s.76-.46,1.17-.68a10.81,10.81,0,0,1,1.2-.55,3.67,3.67,0,0,1,1.07-.32Z"/><path class="cls-2" d="M108.06,16.77a3.7,3.7,0,0,0-1.14.73c-.41.35-.73.65-1,.89l.56-.07a2.84,2.84,0,0,0,.57-.1,3.39,3.39,0,0,0,.87-.33,2,2,0,0,0,.71-.59c.22-.33.24-.52.05-.58A1,1,0,0,0,108.06,16.77Zm7.12.23a.45.45,0,0,1,.23,0,.31.31,0,0,1,.17.13.41.41,0,0,1,0,.22.25.25,0,0,1-.15.18l-2.1,1.25c-.73.44-1.49.87-2.27,1.29s-1.56.8-2.35,1.15a13.9,13.9,0,0,1-2.26.83,7.21,7.21,0,0,1-1.23.23,1.66,1.66,0,0,1-1.11-.23,1.33,1.33,0,0,1-.56-.61,2,2,0,0,1-.17-.81,3,3,0,0,1,.12-.84,6.09,6.09,0,0,1,.28-.78,5.24,5.24,0,0,1,.79-1.19,6.2,6.2,0,0,1,1.11-1,5.58,5.58,0,0,1,1.3-.63,3.25,3.25,0,0,1,1.42-.11c.6.09.9.32.92.69a1.44,1.44,0,0,1-.46,1.09,2.17,2.17,0,0,1-.74.54,6,6,0,0,1-1,.38,7.1,7.1,0,0,1-1.78.2c-.14.18-.28.38-.43.6a4,4,0,0,0-.4.69,1.64,1.64,0,0,0-.23.94.48.48,0,0,0,.35.41,1.23,1.23,0,0,0,.71,0,5.78,5.78,0,0,0,.92-.19,17.74,17.74,0,0,0,2.21-.81q1.16-.51,2.31-1.14c.77-.42,1.52-.84,2.26-1.27s1.51-.81,2.14-1.21Z"/><path class="cls-2" d="M128.09,17a.31.31,0,0,1,.23,0,.28.28,0,0,1,.15.13.41.41,0,0,1,0,.22.26.26,0,0,1-.12.18l-1.37.81a15.91,15.91,0,0,1-1.6.8,12,12,0,0,1-1.65.6,4.06,4.06,0,0,1-1.55.16,3.22,3.22,0,0,1-1.17-.34,2.47,2.47,0,0,1-.91-.85,2.75,2.75,0,0,0-.62-.74c-.18-.12-.5,0-1,.32a7.66,7.66,0,0,0-1.3,1.18c-.38.44-.74.89-1.08,1.36l-.38.62c-.12.2-.24.41-.38.63l-.33.58-.33.54c-.06.18-.19.23-.39.17a1.1,1.1,0,0,1-.73-.79,2,2,0,0,1,.17-1.16,4.85,4.85,0,0,1,.66-1.12c.28-.38.55-.72.79-1l.73-.93a6.44,6.44,0,0,0,.62-.92c0-.09.09-.18.13-.27a.77.77,0,0,0,.1-.29,2.64,2.64,0,0,0-.61.23c-.25.13-.5.28-.74.43a.31.31,0,0,1-.23,0,.31.31,0,0,1-.17-.13.33.33,0,0,1-.05-.22.38.38,0,0,1,.15-.18l1-.51a1.47,1.47,0,0,1,1-.21.63.63,0,0,1,.53.52,2.68,2.68,0,0,1,0,.8,4.72,4.72,0,0,1-.3.92l.6-.51a6.48,6.48,0,0,1,.67-.5,4.37,4.37,0,0,1,.69-.33,1,1,0,0,1,.65,0,.84.84,0,0,1,.51.39c.12.2.24.41.35.63a3.28,3.28,0,0,0,.51.71,1.41,1.41,0,0,0,1,.41,3.26,3.26,0,0,0,1.42-.18,11.21,11.21,0,0,0,1.58-.61c.53-.24,1-.5,1.54-.78A13.92,13.92,0,0,0,128.09,17Z"/><path class="cls-2" d="M143.43,8.82a2.93,2.93,0,0,1,1.21-.43,1.89,1.89,0,0,1,1.1.18,1.4,1.4,0,0,1,.69.71,1.88,1.88,0,0,1,0,1.28,4.69,4.69,0,0,1-.59,1.49,9.35,9.35,0,0,1-1,1.4,8.86,8.86,0,0,1-1.23,1.22,8.77,8.77,0,0,1-1.32.94,2.53,2.53,0,0,1,1,1.17,3.53,3.53,0,0,1,.25,1.47,4.81,4.81,0,0,1-.32,1.72,9,9,0,0,1-.8,1.65,7.46,7.46,0,0,1-1.14,1.43,6.79,6.79,0,0,1-1.37,1.08,4.37,4.37,0,0,1-1.29.52,3.19,3.19,0,0,1-1.34.07,2.25,2.25,0,0,1-1.12-.51,1.88,1.88,0,0,1-.58-1.24,3.76,3.76,0,0,1,.09-1.25,5.58,5.58,0,0,1,.41-1.19.24.24,0,0,1,.29-.17l.09,0a.27.27,0,0,1,.14.34l0,.05a6,6,0,0,0-.36,1,3,3,0,0,0-.06,1.11,1.3,1.3,0,0,0,.46.92,1.33,1.33,0,0,0,.84.26,2.49,2.49,0,0,0,1-.21,4.08,4.08,0,0,0,.91-.51,6.22,6.22,0,0,0,1-1,8.05,8.05,0,0,0,1.5-2.72,7.66,7.66,0,0,0,.35-1.43,4.11,4.11,0,0,0,0-1.31,1.38,1.38,0,0,0-.56-1l-.5.2a1.55,1.55,0,0,1-.52.1.78.78,0,0,1-.53-.14.39.39,0,0,1-.17-.33.58.58,0,0,1,.15-.37.73.73,0,0,1,.48-.25,1.19,1.19,0,0,1,.53,0l.53.13a6.5,6.5,0,0,0,1.17-.92A12,12,0,0,0,144,13a7.87,7.87,0,0,0,.87-1.52,4,4,0,0,0,.38-1.49c0-.57-.09-.88-.41-.94a1.48,1.48,0,0,0-1,.28,4.93,4.93,0,0,0-.93.83,4.22,4.22,0,0,0-.75,1.32c0,.15-.17.21-.37.16a.23.23,0,0,1-.16-.36,5.11,5.11,0,0,1,.84-1.49A5.3,5.3,0,0,1,143.43,8.82Z"/><path class="cls-2" d="M156.3,8.49a2.18,2.18,0,0,1,2.13.33,2.49,2.49,0,0,1,.64,2.11,10.42,10.42,0,0,1-.59,2.71,23.59,23.59,0,0,1-1.06,2.6c-.3.66-.64,1.34-1,2a21.08,21.08,0,0,1-1.19,2A19.26,19.26,0,0,1,153.89,22a8.89,8.89,0,0,1-1.42,1.39,5.58,5.58,0,0,1-1.2.71,2.65,2.65,0,0,1-1.3.21,1.62,1.62,0,0,1-1.42-1,3.83,3.83,0,0,1-.33-1.77,8.94,8.94,0,0,1,.29-2.18,17.47,17.47,0,0,1,.76-2.21c.3-.72.63-1.42,1-2.11s.77-1.31,1.14-1.88a12.93,12.93,0,0,1,1.11-1.5,5.61,5.61,0,0,1,1.33-1.24,2.24,2.24,0,0,1,.91-.35.83.83,0,0,1,.84.35c.16.22.12.39-.1.5a4.34,4.34,0,0,0-1.25,1,14.87,14.87,0,0,0-1.42,1.75c-.35.52-.72,1.12-1.09,1.78a20.72,20.72,0,0,0-1,2,21.23,21.23,0,0,0-.82,2.13,9.81,9.81,0,0,0-.45,2,3.24,3.24,0,0,0,.08,1.42.92.92,0,0,0,.56.61,1.42,1.42,0,0,0,.93-.1,4.21,4.21,0,0,0,1.17-.74,7.61,7.61,0,0,0,1.34-1.32c.42-.53.84-1.1,1.23-1.7s.77-1.23,1.13-1.88.67-1.29,1-1.93c.18-.38.36-.78.55-1.22s.35-.89.51-1.34a13.32,13.32,0,0,0,.39-1.37,6.93,6.93,0,0,0,.2-1.29,2,2,0,0,0-.44-1.6,1.62,1.62,0,0,0-1.6-.24,4.33,4.33,0,0,0-1,.39,6.27,6.27,0,0,0-.83.6.27.27,0,0,1-.38,0l0,0a.26.26,0,0,1,0-.39l0,0a9.43,9.43,0,0,1,1-.64A4.09,4.09,0,0,1,156.3,8.49Z"/><path class="cls-2" d="M190.74,5.19a3.62,3.62,0,0,0,.54-1.72,2.17,2.17,0,0,0-.38-1.35,2.3,2.3,0,0,0-1.17-.84A5.11,5.11,0,0,0,187.87,1a10.69,10.69,0,0,0-2.25.38,17.17,17.17,0,0,0-2.21.81,23.44,23.44,0,0,0-2.11,1.1c-.68.41-1.32.82-1.91,1.24a38.82,38.82,0,0,0-3.93,3.19c-1.37,1.24-2.7,2.58-4,4a21.1,21.1,0,0,0,3.88.39,22.29,22.29,0,0,0,4-.26,21.52,21.52,0,0,0,3.86-.94,16.17,16.17,0,0,0,3.53-1.7A17.33,17.33,0,0,0,189,7.42,9.15,9.15,0,0,0,190.74,5.19ZM187.64.37a6.18,6.18,0,0,1,2.17.36,3.45,3.45,0,0,1,1.49,1,2.54,2.54,0,0,1,.56,1.58,4.18,4.18,0,0,1-.59,2.1,8.82,8.82,0,0,1-1.87,2.42A15.53,15.53,0,0,1,187,9.76a17.55,17.55,0,0,1-3.7,1.79,21.13,21.13,0,0,1-4.06,1,25.3,25.3,0,0,1-4.17.23,25.48,25.48,0,0,1-4.08-.46c-1,1.16-2.07,2.41-3.1,3.74a37.2,37.2,0,0,0-2.81,4.14c.33-.37.69-.75,1.06-1.14a6.37,6.37,0,0,1,1.19-1,2,2,0,0,1,.79-.33.85.85,0,0,1,.66.13,1,1,0,0,1,.41.83,5.57,5.57,0,0,1,0,1,4.18,4.18,0,0,0,0,1,.66.66,0,0,0,.31.53,1,1,0,0,0,.68.06,4.53,4.53,0,0,0,.9-.21c.31-.1.61-.21.89-.33l.66-.28a34.06,34.06,0,0,0,3.13-1.59c1-.61,2.09-1.22,3.1-1.84a.26.26,0,0,1,.21,0,.28.28,0,0,1,.17.13.41.41,0,0,1,0,.22.25.25,0,0,1-.11.18q-1.56.93-3.15,1.83c-1.07.61-2.14,1.16-3.22,1.67-.24.11-.54.23-.88.36a9.15,9.15,0,0,1-1.05.33,4.84,4.84,0,0,1-1.07.15,1.87,1.87,0,0,1-.93-.18,1.21,1.21,0,0,1-.66-.91c-.06-.41-.11-.82-.13-1.24a2.11,2.11,0,0,0-.17-.89c-.08-.15-.35-.06-.79.27a9.89,9.89,0,0,0-1.42,1.4c-.48.58-.9,1.09-1.25,1.53-.18.24-.35.49-.51.73s-.33.48-.48.72a.27.27,0,0,1-.5,0,2,2,0,0,1-.23-.94,4.27,4.27,0,0,1,.12-1,5.16,5.16,0,0,1,.35-1l.42-.87a38.09,38.09,0,0,1,2.55-4C167,14.26,168,13,169,11.84c-.44-.11-.88-.23-1.32-.38L166.34,11c-.62.72-1.31,1.58-2.07,2.56s-1.49,2-2.19,3-1.34,2.08-1.91,3.1a14.18,14.18,0,0,0-1.23,2.76,5.64,5.64,0,0,0-.24,1.63,2,2,0,0,0,.51,1.34.28.28,0,0,1,0,.38.22.22,0,0,1-.31.1l-.06-.05a1.82,1.82,0,0,1-.76-1,4.91,4.91,0,0,1-.28-1.37,5.8,5.8,0,0,1,.06-1.44,10.58,10.58,0,0,1,.28-1.24,16.35,16.35,0,0,1,1.11-2.67c.47-.92,1-1.84,1.58-2.74s1.2-1.78,1.85-2.62,1.27-1.64,1.86-2.36c-1.45-.46-3-.9-4.52-1.32a29.21,29.21,0,0,0-4.55-.86,15.67,15.67,0,0,0-4.16.1A6.61,6.61,0,0,0,148,9.87a.26.26,0,0,1-.37,0l0,0a.25.25,0,0,1-.06-.35l.06-.06a7.25,7.25,0,0,1,3.53-1.65,15.85,15.85,0,0,1,4.35-.12,31.72,31.72,0,0,1,4.74.91q2.42.66,4.7,1.35c.51-.59,1-1.15,1.49-1.68s.94-1,1.38-1.45a2.34,2.34,0,0,1,1.11-.61,1.46,1.46,0,0,1,1.2.24c.2.14.21.29,0,.47-.61.57-1.2,1.16-1.76,1.76s-1.12,1.23-1.67,1.87l1.4.43,1.34.39c1.17-1.33,2.42-2.61,3.73-3.84a40.66,40.66,0,0,1,4.13-3.39,26,26,0,0,1,2.31-1.45,20.9,20.9,0,0,1,2.52-1.22A16.48,16.48,0,0,1,184.75.6a12.92,12.92,0,0,1,2.84-.23Z"/><path class="cls-2" d="M187.65,23.37a2.79,2.79,0,0,0,1.06-.53,3.4,3.4,0,0,0-1.19,0,1.48,1.48,0,0,0-.53.23c-.11.08-.16.16-.15.23s.09.11.22.13A1.19,1.19,0,0,0,187.65,23.37Zm9.08-15a1.64,1.64,0,0,1,1.15.46,2.22,2.22,0,0,1,.6,1.09,5.59,5.59,0,0,1-.65,3.31,22.53,22.53,0,0,1-2.42,4,33.55,33.55,0,0,1-2.59,3,19.15,19.15,0,0,1-2.76,2.41c.62.26,1.19.51,1.73.76a5.77,5.77,0,0,0,1.87.46.26.26,0,0,1,.27.23.19.19,0,0,1,0,.08.24.24,0,0,1-.22.26h-.08a5.87,5.87,0,0,1-2.14-.54,20.68,20.68,0,0,0-2-.85,4.27,4.27,0,0,1-.79.48,7.26,7.26,0,0,1-.86.38,1.7,1.7,0,0,1-1.09,0,.66.66,0,0,1-.46-.47.76.76,0,0,1,.2-.65,1.71,1.71,0,0,1,.89-.49,2.6,2.6,0,0,1,1-.13,3.68,3.68,0,0,1,.92.19,18.22,18.22,0,0,0,2.39-2.17,27.91,27.91,0,0,0,2.1-2.51c.31-.4.66-.92,1.07-1.55a23,23,0,0,0,1.14-2,12.78,12.78,0,0,0,.84-2.1,4.59,4.59,0,0,0,.22-1.84c-.09-.6-.33-.94-.73-1a1.61,1.61,0,0,0-1.25.33c-.22.18-.44.37-.66.58a3.46,3.46,0,0,0-.6.78,5.28,5.28,0,0,0-.79,1.68.24.24,0,0,1-.24.24.2.2,0,0,1-.11,0,.26.26,0,0,1-.22-.29s0,0,0-.05a7.59,7.59,0,0,1,.86-1.85,8.12,8.12,0,0,1,.64-.81,5,5,0,0,1,.81-.72,4.79,4.79,0,0,1,1-.46,2.89,2.89,0,0,1,1-.21Z"/><path class="cls-2" d="M208.31,8.49a2.18,2.18,0,0,1,2.13.33,2.49,2.49,0,0,1,.64,2.11,10.42,10.42,0,0,1-.59,2.71,23.59,23.59,0,0,1-1.06,2.6c-.31.66-.64,1.34-1,2A20.28,20.28,0,0,1,205.91,22a8.89,8.89,0,0,1-1.42,1.39,5.58,5.58,0,0,1-1.2.71,2.67,2.67,0,0,1-1.31.21,1.64,1.64,0,0,1-1.42-1,4.13,4.13,0,0,1-.33-1.77,9,9,0,0,1,.3-2.18,17.47,17.47,0,0,1,.76-2.21,21.36,21.36,0,0,1,1-2.11c.38-.68.76-1.31,1.14-1.88a14.13,14.13,0,0,1,1.1-1.5,5.65,5.65,0,0,1,1.34-1.24,2,2,0,0,1,.91-.35.83.83,0,0,1,.84.35c.15.22.12.39-.1.5a4.34,4.34,0,0,0-1.25,1,13.93,13.93,0,0,0-1.42,1.75c-.35.52-.72,1.12-1.09,1.78a20.72,20.72,0,0,0-1,2,21.31,21.31,0,0,0-.83,2.13,9.79,9.79,0,0,0-.44,2,3.24,3.24,0,0,0,.08,1.42.92.92,0,0,0,.56.61,1.42,1.42,0,0,0,.93-.1,4.21,4.21,0,0,0,1.17-.74,7.91,7.91,0,0,0,1.33-1.32,19,19,0,0,0,1.24-1.7c.4-.61.77-1.23,1.12-1.88s.67-1.29,1-1.93c.18-.38.36-.78.54-1.22s.36-.89.52-1.34a13.32,13.32,0,0,0,.39-1.37,6.93,6.93,0,0,0,.2-1.29,2,2,0,0,0-.45-1.6,1.62,1.62,0,0,0-1.6-.24,4.13,4.13,0,0,0-1,.39,4.5,4.5,0,0,0-.83.6.3.3,0,0,1-.42-.11.32.32,0,0,1,0-.36,8.77,8.77,0,0,1,1-.64A3.9,3.9,0,0,1,208.31,8.49Z"/><path class="cls-2" d="M212.4,23.37a2.79,2.79,0,0,0,1.06-.53,3.4,3.4,0,0,0-1.19,0,1.48,1.48,0,0,0-.53.23c-.11.08-.16.16-.15.23s.09.11.22.13A1.19,1.19,0,0,0,212.4,23.37Zm9.08-15a1.64,1.64,0,0,1,1.15.46,2.22,2.22,0,0,1,.6,1.09,5.59,5.59,0,0,1-.65,3.31,22.53,22.53,0,0,1-2.42,4,33.55,33.55,0,0,1-2.59,3,19.15,19.15,0,0,1-2.76,2.41c.62.26,1.19.51,1.73.76a5.77,5.77,0,0,0,1.87.46.26.26,0,0,1,.27.23.19.19,0,0,1,0,.08.24.24,0,0,1-.22.26h-.08a5.87,5.87,0,0,1-2.14-.54,20.68,20.68,0,0,0-2-.85,4.27,4.27,0,0,1-.79.48,7.26,7.26,0,0,1-.86.38,1.7,1.7,0,0,1-1.09,0,.66.66,0,0,1-.46-.47.76.76,0,0,1,.2-.65,1.71,1.71,0,0,1,.89-.49,2.6,2.6,0,0,1,1-.13,3.68,3.68,0,0,1,.92.19,18.22,18.22,0,0,0,2.39-2.17,27.91,27.91,0,0,0,2.1-2.51c.31-.4.66-.92,1.07-1.55a23,23,0,0,0,1.14-2,12.78,12.78,0,0,0,.84-2.1,4.59,4.59,0,0,0,.22-1.84c-.09-.6-.33-.94-.73-1a1.61,1.61,0,0,0-1.25.33c-.22.18-.44.37-.66.58a3.46,3.46,0,0,0-.6.78,5.1,5.1,0,0,0-.82,1.71.24.24,0,0,1-.24.24.2.2,0,0,1-.11,0,.26.26,0,0,1-.22-.29s0,0,0-.05a7.59,7.59,0,0,1,.86-1.85,8.12,8.12,0,0,1,.64-.81,5,5,0,0,1,.81-.72,5.19,5.19,0,0,1,.92-.52,2.8,2.8,0,0,1,1.07-.18Z"/><path class="cls-2" d="M233.06,8.49a2.18,2.18,0,0,1,2.13.33,2.49,2.49,0,0,1,.64,2.11,10.42,10.42,0,0,1-.59,2.71,23.59,23.59,0,0,1-1.06,2.6c-.31.66-.64,1.34-1,2A20.28,20.28,0,0,1,230.66,22a8.89,8.89,0,0,1-1.42,1.39,5.58,5.58,0,0,1-1.2.71,2.67,2.67,0,0,1-1.31.21,1.64,1.64,0,0,1-1.42-1,4.13,4.13,0,0,1-.33-1.77,9,9,0,0,1,.3-2.18,17.47,17.47,0,0,1,.76-2.21,21.36,21.36,0,0,1,1-2.11c.39-.68.76-1.31,1.14-1.88a14.13,14.13,0,0,1,1.1-1.5,5.65,5.65,0,0,1,1.34-1.24,2,2,0,0,1,.91-.35.83.83,0,0,1,.84.35c.15.22.12.39-.1.5a4.34,4.34,0,0,0-1.25,1,13.93,13.93,0,0,0-1.42,1.75c-.35.52-.72,1.12-1.09,1.78a20.72,20.72,0,0,0-1,2,21.31,21.31,0,0,0-.83,2.13,9.79,9.79,0,0,0-.44,2,3.24,3.24,0,0,0,.08,1.42.92.92,0,0,0,.56.61,1.42,1.42,0,0,0,.93-.1,4.21,4.21,0,0,0,1.17-.74,7.91,7.91,0,0,0,1.33-1.32,19,19,0,0,0,1.24-1.7c.4-.61.77-1.23,1.12-1.88s.67-1.29,1-1.93c.18-.38.36-.78.54-1.22s.36-.89.52-1.34a13.32,13.32,0,0,0,.39-1.37,6.93,6.93,0,0,0,.2-1.29,2,2,0,0,0-.45-1.6,1.62,1.62,0,0,0-1.6-.24,4.33,4.33,0,0,0-1,.39,4.5,4.5,0,0,0-.83.6.3.3,0,0,1-.42-.11.32.32,0,0,1,0-.36,8.77,8.77,0,0,1,.95-.64A4.39,4.39,0,0,1,233.06,8.49Z"/></g></g></g></g></svg>