<svg xmlns="http://www.w3.org/2000/svg" viewBox="0 0 247.3 193.07"><defs><style>.cls-1,.cls-2{fill:#fff;}.cls-2{stroke:#fff;stroke-miterlimit:22.93;stroke-width:0.22px;}</style></defs><g id="Layer_2" data-name="Layer 2"><g id="Layer_1-2" data-name="Layer 1"><g id="Layer_2-2" data-name="Layer 2"><g id="Layer_1-2-2" data-name="Layer 1-2"><path class="cls-1" d="M82.43,32.14c.94-1.33,2-2.9,3.15-4.73s2.27-3.7,3.32-5.7a57.15,57.15,0,0,0,2.77-6,20.66,20.66,0,0,0,1.45-5.8,8.37,8.37,0,0,0-.45-4.48,5.86,5.86,0,0,0-2.32-2.72,8.86,8.86,0,0,0-3.61-1.12,19,19,0,0,0-4.39.12,30.34,30.34,0,0,0-6.14,1.54,43.82,43.82,0,0,0-6,2.73Q67.27,7.6,64.53,9.46C62.71,10.71,61,12,59.39,13.24a111.06,111.06,0,0,0-9.07,8c-2.91,2.84-5.65,5.81-8.25,8.91,2.37-.67,4.85-1.25,7.42-1.74s5.16-.87,7.79-1.12A69.68,69.68,0,0,1,65.06,27a42.46,42.46,0,0,1,7.55.83,21.65,21.65,0,0,1,9.78,4.31M47,66.46q4.72-3.24,9.45-7.09t9.16-8.08q4.44-4.23,8.5-8.79t7.46-9.2a14.52,14.52,0,0,0-4-2.49,27,27,0,0,0-5.14-1.57,44.75,44.75,0,0,0-7.83-.83,65,65,0,0,0-8.25.37,72.91,72.91,0,0,0-8.17,1.37c-2.67.61-5.22,1.28-7.67,2-1.27,1.6-2.61,3.38-4,5.34a69.46,69.46,0,0,0-3.81,6.22,50.93,50.93,0,0,0-3,6.55,26.7,26.7,0,0,0-1.59,6.45.71.71,0,0,1-1.41-.09,22.72,22.72,0,0,1,1.11-10.18A72.74,72.74,0,0,1,32.61,35q-4.09,1.71-8,3.81a70.45,70.45,0,0,0-7.71,4.81,61.32,61.32,0,0,0-6.84,5.72,34.85,34.85,0,0,0-5.31,6.55,18.43,18.43,0,0,0-3.15,9,12.57,12.57,0,0,0,1.91,7.51A12.77,12.77,0,0,0,9.77,77.2a20.72,20.72,0,0,0,9.9,1.08,31.61,31.61,0,0,0,7.39-1.57,67.91,67.91,0,0,0,7.3-2.95,71.69,71.69,0,0,0,6.76-3.6Q44.39,68.19,47,66.46ZM82.06.3A19.1,19.1,0,0,1,87.4.3a10.71,10.71,0,0,1,4.4,1.62,8.65,8.65,0,0,1,2.94,3.44,12.2,12.2,0,0,1,1,5.35,22.81,22.81,0,0,1-1,6.47,45.08,45.08,0,0,1-2.53,6.67,62.18,62.18,0,0,1-3.4,6.34q-1.86,3.12-3.6,5.52a12.35,12.35,0,0,1,1.33,6.72.68.68,0,0,1-.72.64l-.11,0c-.5,0-.72-.26-.67-.71a11,11,0,0,0-.74-5.3,96.09,96.09,0,0,1-7,8.33c-2.54,2.74-5.19,5.37-8,7.92s-5.6,5-8.53,7.25-5.75,4.4-8.75,6.33c-2,1.33-4.27,2.72-6.84,4.19a84.71,84.71,0,0,1-8.08,4.06,70.9,70.9,0,0,1-8.71,3.19,38.09,38.09,0,0,1-8.79,1.58A23.39,23.39,0,0,1,8.91,78.4,14.39,14.39,0,0,1,2.15,73a13.62,13.62,0,0,1-2-8.21,20.84,20.84,0,0,1,3.48-9.87,37.65,37.65,0,0,1,5.72-7,59.13,59.13,0,0,1,7.38-6,77.16,77.16,0,0,1,8.33-5q4.36-2.25,8.58-4,2.41-4.39,5.27-8.63c1.91-2.81,3.78-5.44,5.64-7.87s3.62-4.63,5.3-6.59S53,6.26,54.12,5a20.51,20.51,0,0,1,1.7-1.66,12,12,0,0,1,2.24-1.49,5.71,5.71,0,0,1,2.32-.71,3,3,0,0,1,2.19.75.63.63,0,0,1,.29.85.55.55,0,0,1-.2.23q-6.52,6.38-12.4,13.38A175.87,175.87,0,0,0,39.26,31l.41-.09a120.63,120.63,0,0,1,8.92-10,108.72,108.72,0,0,1,10-8.82q2.49-2,5.27-3.9a63.91,63.91,0,0,1,5.72-3.46,47.71,47.71,0,0,1,6.14-2.78A29.54,29.54,0,0,1,82.06.3Z"/><path class="cls-1" d="M130.84,42.71a.84.84,0,0,1,.58-.09.92.92,0,0,1,.42.33.75.75,0,0,1,.12.54.57.57,0,0,1-.37.46q-3.74,2.34-7.59,4.48c-2.57,1.43-5.2,2.79-7.91,4.06a39.18,39.18,0,0,1-4.4,1.82,25.14,25.14,0,0,1-4,1.08,7,7,0,0,1-3.89-.25,4,4,0,0,1-2.32-3.07,8.12,8.12,0,0,1-.13-1.78,17,17,0,0,1,.21-2c-.28.33-.65.79-1.12,1.37a13.7,13.7,0,0,1-1.57,1.66,7.87,7.87,0,0,1-1.74,1.24,1.76,1.76,0,0,1-1.62.13,2.37,2.37,0,0,1-1.45-2.07,10.4,10.4,0,0,1,0-2.73,11.39,11.39,0,0,1,.58-2.49,9.61,9.61,0,0,1,1.24-2.32,2.22,2.22,0,0,1,2-.79,2.8,2.8,0,0,1,1.86,1,.65.65,0,0,1,0,.92.39.39,0,0,1-.1.08,13.69,13.69,0,0,0-1.78,2.24,19.81,19.81,0,0,0-1.37,2.57,4.9,4.9,0,0,0-.45,1.15c-.17.58-.17,1,0,1.12s.59-.06,1.12-.5a8.16,8.16,0,0,0,1-.91A38.2,38.2,0,0,0,101,46.81c.94-1.16,1.8-2.29,2.57-3.4a5.93,5.93,0,0,1,2.28-2.11,2.76,2.76,0,0,1,2.94.62.63.63,0,0,1,.29.85.55.55,0,0,1-.2.23c-.93,1-1.8,2.14-2.62,3.27A20.46,20.46,0,0,0,104.15,50q-2.16,4.89,3.32,4a27.48,27.48,0,0,0,3.77-1.08q2.12-.75,4.27-1.74a86.63,86.63,0,0,0,7.79-4c2.54-1.43,5.06-2.93,7.54-4.47"/><path class="cls-1" d="M163.26,42.71a.84.84,0,0,1,.58-.09.67.67,0,0,1,.37.33.92.92,0,0,1,.08.54A.57.57,0,0,1,164,44c-1,.61-2.14,1.28-3.44,2a37.3,37.3,0,0,1-4,2,28.76,28.76,0,0,1-4.14,1.49,10.69,10.69,0,0,1-3.9.42,8.05,8.05,0,0,1-2.94-.87,6,6,0,0,1-2.28-2.12A6.71,6.71,0,0,0,141.72,45c-.44-.31-1.24,0-2.4.79a19.39,19.39,0,0,0-3.27,3,36.6,36.6,0,0,0-2.7,3.4l-1,1.57c-.31.5-.62,1-1,1.58s-.55,1-.82,1.45l-.83,1.37a.69.69,0,0,1-.85.48l-.15-.07a2.68,2.68,0,0,1-1.82-2,5.09,5.09,0,0,1,.41-2.9,12.67,12.67,0,0,1,1.77-2.81c.72-.94,1.38-1.79,2-2.57s1.22-1.54,1.82-2.32a16.7,16.7,0,0,0,1.53-2.27l.33-.66a2.76,2.76,0,0,0,.25-.75,5.56,5.56,0,0,0-1.53.58c-.64.33-1.26.69-1.87,1.08a.69.69,0,0,1-1-.19l0-.06a.78.78,0,0,1-.13-.54.63.63,0,0,1,.37-.45c.61-.34,1.41-.76,2.41-1.29a3.7,3.7,0,0,1,2.49-.54,1.55,1.55,0,0,1,1.33,1.28,6.1,6.1,0,0,1,0,2,12.3,12.3,0,0,1-.74,2.32l1.49-1.29a14.78,14.78,0,0,1,1.7-1.24,8.68,8.68,0,0,1,1.74-.83,2.61,2.61,0,0,1,1.61,0,2.26,2.26,0,0,1,1.29,1c.3.5.59,1,.87,1.58a8.8,8.8,0,0,0,1.29,1.78,3.59,3.59,0,0,0,2.44,1,8.65,8.65,0,0,0,3.57-.46,31.69,31.69,0,0,0,4-1.53,40.2,40.2,0,0,0,3.86-2c1.24-.74,2.28-1.31,3.11-1.86"/><path class="cls-1" d="M210.93,51.71c.33.06.83-.23,1.49-.87s1.35-1.37,2.07-2.2,1.41-1.65,2.07-2.48,1.14-1.44,1.41-1.83a2.18,2.18,0,0,0-.54-1c-.24-.25-.62-.27-1.12,0a6.27,6.27,0,0,0-2.44,2.07,22,22,0,0,0-2,3.23c-.11.28-.32.76-.62,1.45a2.72,2.72,0,0,0-.29,1.7m35.1-9.07a.84.84,0,0,1,.58-.09.89.89,0,0,1,.41.33.8.8,0,0,1,.13.54.6.6,0,0,1-.38.46q-4.47,2.65-9.12,5.3a70,70,0,0,1-9.53,4.56,32.94,32.94,0,0,1-4.56,1.41,8.18,8.18,0,0,1-3.65.17,3.74,3.74,0,0,1-2-1,4.32,4.32,0,0,1-1.07-1.78,7.68,7.68,0,0,1-.38-2.19,8.47,8.47,0,0,1,.21-2.24,21.42,21.42,0,0,1-1.64,1.91c-.61.63-1.2,1.2-1.78,1.69a5.84,5.84,0,0,1-1.7,1.08,1.82,1.82,0,0,1-1.41.09,2.1,2.1,0,0,1-1-1.17,5.17,5.17,0,0,1-.38-1.74,9.67,9.67,0,0,1,.09-1.86,10.19,10.19,0,0,1,.29-1.54,13.89,13.89,0,0,1,1.69-3.27A6.78,6.78,0,0,1,213.64,41a4,4,0,0,1,3-.13,3.66,3.66,0,0,1,2.28,2,2.73,2.73,0,0,1,2.14-1.29,3.18,3.18,0,0,1,2.55,1.12.65.65,0,0,1,0,.92.39.39,0,0,1-.1.08c-.78.94-1.58,2-2.41,3a13.89,13.89,0,0,0-1.9,3.27,7.71,7.71,0,0,0-.46,2.32c0,.78.43,1.3,1.37,1.58a4.36,4.36,0,0,0,2,.08,18.09,18.09,0,0,0,2.19-.45c.72-.2,1.4-.4,2-.62s1.1-.39,1.37-.5a73,73,0,0,0,9.37-4.46Q241.7,45.32,246.06,42.71Z"/><path class="cls-1" d="M182.57,41.17c0,.67,0,1.34,0,2a15.08,15.08,0,0,0,.21,1.91q1.25-1.89,2.4-3.86c.78-1.29,1.47-2.58,2.08-3.85.49-1,1-2.13,1.49-3.4a13.13,13.13,0,0,0,.91-3.56c.11-1.5-.16-2.2-.83-2.12a3.82,3.82,0,0,0-2.15,1.54,14.11,14.11,0,0,0-1.41,2.4c-.45.94-.86,2-1.25,3a32.5,32.5,0,0,0-1,3.15,17.4,17.4,0,0,0-.46,2.77m28.9,1.56a.84.84,0,0,1,.58-.09.89.89,0,0,1,.41.33.8.8,0,0,1,.13.54.6.6,0,0,1-.38.46,72,72,0,0,1-11.35,5.76A31.31,31.31,0,0,1,191.61,52a14.65,14.65,0,0,1-5.22-.62,7.09,7.09,0,0,1-4.06-3.19c-1.28,1.77-2.57,3.42-3.9,5s-2.54,2.87-3.65,4c-.27.28-.61.58-1,.91s-.8.65-1.25,1a7.43,7.43,0,0,1-1.32.74A1.8,1.8,0,0,1,170,60a1.74,1.74,0,0,1-1.32-1,5.78,5.78,0,0,1-.58-1.82,11,11,0,0,1-.13-2.07,12.16,12.16,0,0,1,.13-1.7,21.49,21.49,0,0,1,.74-3.15c-.49.6-1,1.14-1.45,1.61s-.92.9-1.37,1.29c-1.43,1.16-2.66,1.64-3.68,1.45s-1.65-1.4-1.87-3.61a10.92,10.92,0,0,1,.58-4.35,11.87,11.87,0,0,1,2.05-3.9,3,3,0,0,1,2.45-1.16,3.26,3.26,0,0,1,2.36,1.32.66.66,0,0,1,0,.94.56.56,0,0,1-.2.14,11.27,11.27,0,0,0-3,3,14.22,14.22,0,0,0-2,3.77q-.75,2.16,0,2.28c.5.08,1.27-.32,2.32-1.2a19.9,19.9,0,0,0,3.32-3.48,45.48,45.48,0,0,0,2.73-4,4.4,4.4,0,0,1,1.66-1.79,2.43,2.43,0,0,1,2.41.29c.44.34.52.67.24,1a7.7,7.7,0,0,0-.66,1.28c-.22.41-.47.85-.74,1.29-.67,1.21-1.37,2.61-2.12,4.19A37.58,37.58,0,0,0,170.09,55a6.74,6.74,0,0,0-.17.75,7.16,7.16,0,0,1-.16,1,2.8,2.8,0,0,0,0,1,.78.78,0,0,0,.41.63c.17.11.42,0,.75-.17l1.08-.75c.38-.27.74-.55,1.07-.82s.56-.47.67-.58a48.28,48.28,0,0,0,3.81-4.15c1.38-1.66,2.74-3.45,4.06-5.39a11.88,11.88,0,0,1-.54-2.65,14.76,14.76,0,0,1,0-2.82,20.41,20.41,0,0,1,.5-3c.28-1.13.61-2.26,1-3.39a28.21,28.21,0,0,1,1.32-3.24,13,13,0,0,1,1.66-2.61,6.48,6.48,0,0,1,2.12-1.7,2.41,2.41,0,0,1,1.86-.12,2.19,2.19,0,0,1,1.2,1.41,6.12,6.12,0,0,1,.13,2.82,14.69,14.69,0,0,1-1,3.39c-.47,1.16-1,2.27-1.45,3.32-.77,1.55-1.6,3-2.48,4.52s-1.8,2.91-2.74,4.35a5.58,5.58,0,0,0,3.44,3.11,12.83,12.83,0,0,0,4.77.54,31.4,31.4,0,0,0,8.95-2.16A62.92,62.92,0,0,0,211.51,42.71Z"/><path class="cls-2" d="M82.43,32.14c.94-1.33,2-2.9,3.15-4.73s2.27-3.7,3.32-5.7a57.15,57.15,0,0,0,2.77-6,20.66,20.66,0,0,0,1.45-5.8,8.37,8.37,0,0,0-.45-4.48,5.86,5.86,0,0,0-2.32-2.72,8.86,8.86,0,0,0-3.61-1.12,19,19,0,0,0-4.39.12,30.34,30.34,0,0,0-6.14,1.54,43.82,43.82,0,0,0-6,2.73Q67.27,7.6,64.53,9.46C62.71,10.71,61,12,59.39,13.24a111.06,111.06,0,0,0-9.07,8c-2.91,2.84-5.65,5.81-8.25,8.91,2.37-.67,4.85-1.25,7.42-1.74s5.16-.87,7.79-1.12A69.68,69.68,0,0,1,65.06,27a42.46,42.46,0,0,1,7.55.83A21.59,21.59,0,0,1,82.43,32.14ZM47,66.46q4.72-3.24,9.45-7.09t9.16-8.08q4.44-4.23,8.5-8.79t7.46-9.2a14.52,14.52,0,0,0-4-2.49,27,27,0,0,0-5.14-1.57,44.75,44.75,0,0,0-7.83-.83,65,65,0,0,0-8.25.37,72.91,72.91,0,0,0-8.17,1.37c-2.67.61-5.22,1.28-7.67,2-1.27,1.6-2.61,3.38-4,5.34a69.46,69.46,0,0,0-3.81,6.22,50.93,50.93,0,0,0-3,6.55,26.7,26.7,0,0,0-1.59,6.45.71.71,0,0,1-1.41-.09,22.72,22.72,0,0,1,1.11-10.18A72.74,72.74,0,0,1,32.61,35q-4.09,1.71-8,3.81a70.45,70.45,0,0,0-7.71,4.81,61.32,61.32,0,0,0-6.84,5.72,34.85,34.85,0,0,0-5.31,6.55,18.43,18.43,0,0,0-3.15,9,12.57,12.57,0,0,0,1.91,7.51A12.77,12.77,0,0,0,9.77,77.2a20.72,20.72,0,0,0,9.9,1.08,31.61,31.61,0,0,0,7.39-1.57,67.91,67.91,0,0,0,7.3-2.95,71.69,71.69,0,0,0,6.76-3.6Q44.39,68.19,47,66.46ZM82.06.3A19.1,19.1,0,0,1,87.4.3a10.71,10.71,0,0,1,4.4,1.62,8.65,8.65,0,0,1,2.94,3.44,12.2,12.2,0,0,1,1,5.35,22.81,22.81,0,0,1-1,6.47,45.08,45.08,0,0,1-2.53,6.67,62.18,62.18,0,0,1-3.4,6.34q-1.86,3.12-3.6,5.52a12.35,12.35,0,0,1,1.33,6.72.68.68,0,0,1-.72.64l-.11,0c-.5,0-.72-.26-.67-.71a11,11,0,0,0-.74-5.3,96.09,96.09,0,0,1-7,8.33c-2.54,2.74-5.19,5.37-8,7.92s-5.6,5-8.53,7.25-5.75,4.4-8.75,6.33c-2,1.33-4.27,2.72-6.84,4.19a84.71,84.71,0,0,1-8.08,4.06,70.9,70.9,0,0,1-8.71,3.19,38.09,38.09,0,0,1-8.79,1.58A23.39,23.39,0,0,1,8.91,78.4,14.39,14.39,0,0,1,2.15,73a13.62,13.62,0,0,1-2-8.21,20.84,20.84,0,0,1,3.48-9.87,37.65,37.65,0,0,1,5.72-7,59.13,59.13,0,0,1,7.38-6,77.16,77.16,0,0,1,8.33-5q4.36-2.25,8.58-4,2.41-4.39,5.27-8.63c1.91-2.81,3.78-5.44,5.64-7.87s3.62-4.63,5.3-6.59S53,6.26,54.12,5a20.51,20.51,0,0,1,1.7-1.66,12,12,0,0,1,2.24-1.49,5.71,5.71,0,0,1,2.32-.71,3,3,0,0,1,2.19.75.63.63,0,0,1,.29.85.55.55,0,0,1-.2.23q-6.52,6.38-12.4,13.38A175.87,175.87,0,0,0,39.26,31l.41-.09a120.63,120.63,0,0,1,8.92-10,108.72,108.72,0,0,1,10-8.82q2.49-2,5.27-3.9a63.91,63.91,0,0,1,5.72-3.46,47.71,47.71,0,0,1,6.14-2.78A29.54,29.54,0,0,1,82.06.3Z"/><path class="cls-2" d="M130.84,42.71a.84.84,0,0,1,.58-.09.92.92,0,0,1,.42.33.75.75,0,0,1,.12.54.57.57,0,0,1-.37.46q-3.74,2.34-7.59,4.48c-2.57,1.43-5.2,2.79-7.91,4.06a39.18,39.18,0,0,1-4.4,1.82,25.14,25.14,0,0,1-4,1.08,7,7,0,0,1-3.89-.25,4,4,0,0,1-2.32-3.07,8.12,8.12,0,0,1-.13-1.78,17,17,0,0,1,.21-2c-.28.33-.65.79-1.12,1.37a13.7,13.7,0,0,1-1.57,1.66,7.87,7.87,0,0,1-1.74,1.24,1.76,1.76,0,0,1-1.62.13,2.37,2.37,0,0,1-1.45-2.07,10.4,10.4,0,0,1,0-2.73,11.39,11.39,0,0,1,.58-2.49,9.61,9.61,0,0,1,1.24-2.32,2.22,2.22,0,0,1,2-.79,2.8,2.8,0,0,1,1.86,1,.65.65,0,0,1,0,.92.39.39,0,0,1-.1.08,13.69,13.69,0,0,0-1.78,2.24,19.81,19.81,0,0,0-1.37,2.57,4.9,4.9,0,0,0-.45,1.15c-.17.58-.17,1,0,1.12s.59-.06,1.12-.5a8.16,8.16,0,0,0,1-.91A38.2,38.2,0,0,0,101,46.81c.94-1.16,1.8-2.29,2.57-3.4a5.93,5.93,0,0,1,2.28-2.11,2.76,2.76,0,0,1,2.94.62.63.63,0,0,1,.29.85.55.55,0,0,1-.2.23c-.93,1-1.8,2.14-2.62,3.27A20.46,20.46,0,0,0,104.15,50q-2.16,4.89,3.32,4a27.48,27.48,0,0,0,3.77-1.08q2.12-.75,4.27-1.74a86.63,86.63,0,0,0,7.79-4C125.84,45.71,128.36,44.21,130.84,42.71Z"/><path class="cls-2" d="M163.26,42.71a.84.84,0,0,1,.58-.09.67.67,0,0,1,.37.33.92.92,0,0,1,.08.54A.57.57,0,0,1,164,44c-1,.61-2.14,1.28-3.44,2a37.3,37.3,0,0,1-4,2,28.76,28.76,0,0,1-4.14,1.49,10.69,10.69,0,0,1-3.9.42,8.05,8.05,0,0,1-2.94-.87,6,6,0,0,1-2.28-2.12A6.71,6.71,0,0,0,141.72,45c-.44-.31-1.24,0-2.4.79a19.39,19.39,0,0,0-3.27,3,36.6,36.6,0,0,0-2.7,3.4l-1,1.57c-.31.5-.62,1-1,1.58s-.55,1-.82,1.45l-.83,1.37a.69.69,0,0,1-.85.48l-.15-.07a2.68,2.68,0,0,1-1.82-2,5.09,5.09,0,0,1,.41-2.9,12.67,12.67,0,0,1,1.77-2.81c.72-.94,1.38-1.79,2-2.57s1.22-1.54,1.82-2.32a16.7,16.7,0,0,0,1.53-2.27l.33-.66a2.76,2.76,0,0,0,.25-.75,5.56,5.56,0,0,0-1.53.58c-.64.33-1.26.69-1.87,1.08a.69.69,0,0,1-1-.19l0-.06a.78.78,0,0,1-.13-.54.63.63,0,0,1,.37-.45c.61-.34,1.41-.76,2.41-1.29a3.7,3.7,0,0,1,2.49-.54,1.55,1.55,0,0,1,1.33,1.28,6.1,6.1,0,0,1,0,2,12.3,12.3,0,0,1-.74,2.32l1.49-1.29a14.78,14.78,0,0,1,1.7-1.24,8.68,8.68,0,0,1,1.74-.83,2.61,2.61,0,0,1,1.61,0,2.26,2.26,0,0,1,1.29,1c.3.5.59,1,.87,1.58a8.8,8.8,0,0,0,1.29,1.78,3.59,3.59,0,0,0,2.44,1,8.65,8.65,0,0,0,3.57-.46,31.69,31.69,0,0,0,4-1.53,40.2,40.2,0,0,0,3.86-2C161.42,43.76,162.43,43.22,163.26,42.71Z"/><path class="cls-2" d="M210.93,51.71c.33.06.83-.23,1.49-.87s1.35-1.37,2.07-2.2,1.41-1.65,2.07-2.48,1.14-1.44,1.41-1.83a2.18,2.18,0,0,0-.54-1c-.24-.25-.62-.27-1.12,0a6.27,6.27,0,0,0-2.44,2.07,22,22,0,0,0-2,3.23c-.11.28-.32.76-.62,1.45A2.73,2.73,0,0,0,210.93,51.71Zm35.13-9a.84.84,0,0,1,.58-.09.89.89,0,0,1,.41.33.8.8,0,0,1,.13.54.6.6,0,0,1-.38.46q-4.47,2.65-9.12,5.3a70,70,0,0,1-9.53,4.56,32.94,32.94,0,0,1-4.56,1.41,8.18,8.18,0,0,1-3.65.17,3.74,3.74,0,0,1-2-1,4.32,4.32,0,0,1-1.07-1.78,7.68,7.68,0,0,1-.38-2.19,8.47,8.47,0,0,1,.21-2.24,21.42,21.42,0,0,1-1.64,1.91c-.61.63-1.2,1.2-1.78,1.69a5.84,5.84,0,0,1-1.7,1.08,1.82,1.82,0,0,1-1.41.09,2.1,2.1,0,0,1-1-1.17,5.17,5.17,0,0,1-.38-1.74,9.67,9.67,0,0,1,.09-1.86,10.19,10.19,0,0,1,.29-1.54,13.89,13.89,0,0,1,1.69-3.27A6.78,6.78,0,0,1,213.64,41a4,4,0,0,1,3-.13,3.66,3.66,0,0,1,2.28,2,2.73,2.73,0,0,1,2.14-1.29,3.18,3.18,0,0,1,2.55,1.12.65.65,0,0,1,0,.92.39.39,0,0,1-.1.08c-.78.94-1.58,2-2.41,3a13.89,13.89,0,0,0-1.9,3.27,7.71,7.71,0,0,0-.46,2.32c0,.78.43,1.3,1.37,1.58a4.36,4.36,0,0,0,2,.08,18.09,18.09,0,0,0,2.19-.45c.72-.2,1.4-.4,2-.62s1.1-.39,1.37-.5a73,73,0,0,0,9.37-4.46Q241.7,45.32,246.06,42.71Z"/><path class="cls-2" d="M182.57,41.17c0,.67,0,1.34,0,2a15.08,15.08,0,0,0,.21,1.91q1.25-1.89,2.4-3.86c.78-1.29,1.47-2.58,2.08-3.85.49-1,1-2.13,1.49-3.4a13.13,13.13,0,0,0,.91-3.56c.11-1.5-.16-2.2-.83-2.12a3.82,3.82,0,0,0-2.15,1.54,14.11,14.11,0,0,0-1.41,2.4c-.45.94-.86,2-1.25,3a32.5,32.5,0,0,0-1,3.15A17.74,17.74,0,0,0,182.57,41.17Zm28.94,1.54a.84.84,0,0,1,.58-.09.89.89,0,0,1,.41.33.8.8,0,0,1,.13.54.6.6,0,0,1-.38.46,72,72,0,0,1-11.35,5.76A31.31,31.31,0,0,1,191.61,52a14.65,14.65,0,0,1-5.22-.62,7.09,7.09,0,0,1-4.06-3.19c-1.28,1.77-2.57,3.42-3.9,5s-2.54,2.87-3.65,4c-.27.28-.61.58-1,.91s-.8.65-1.25,1a7.43,7.43,0,0,1-1.32.74A1.8,1.8,0,0,1,170,60a1.74,1.74,0,0,1-1.32-1,5.78,5.78,0,0,1-.58-1.82,11,11,0,0,1-.13-2.07,12.16,12.16,0,0,1,.13-1.7,21.49,21.49,0,0,1,.74-3.15c-.49.6-1,1.14-1.45,1.61s-.92.9-1.37,1.29c-1.43,1.16-2.66,1.64-3.68,1.45s-1.65-1.4-1.87-3.61a10.92,10.92,0,0,1,.58-4.35,11.87,11.87,0,0,1,2.05-3.9,3,3,0,0,1,2.45-1.16,3.26,3.26,0,0,1,2.36,1.32.66.66,0,0,1,0,.94.56.56,0,0,1-.2.14,11.27,11.27,0,0,0-3,3,14.22,14.22,0,0,0-2,3.77q-.75,2.16,0,2.28c.5.08,1.27-.32,2.32-1.2a19.9,19.9,0,0,0,3.32-3.48,45.48,45.48,0,0,0,2.73-4,4.4,4.4,0,0,1,1.66-1.79,2.43,2.43,0,0,1,2.41.29c.44.34.52.67.24,1a7.7,7.7,0,0,0-.66,1.28c-.22.41-.47.85-.74,1.29-.67,1.21-1.37,2.61-2.12,4.19A37.58,37.58,0,0,0,170.09,55a6.74,6.74,0,0,0-.17.75,7.16,7.16,0,0,1-.16,1,2.8,2.8,0,0,0,0,1,.78.78,0,0,0,.41.63c.17.11.42,0,.75-.17l1.08-.75c.38-.27.74-.55,1.07-.82s.56-.47.67-.58a48.28,48.28,0,0,0,3.81-4.15c1.38-1.66,2.74-3.45,4.06-5.39a11.88,11.88,0,0,1-.54-2.65,14.76,14.76,0,0,1,0-2.82,20.41,20.41,0,0,1,.5-3c.28-1.13.61-2.26,1-3.39a28.21,28.21,0,0,1,1.32-3.24,13,13,0,0,1,1.66-2.61,6.48,6.48,0,0,1,2.12-1.7,2.41,2.41,0,0,1,1.86-.12,2.19,2.19,0,0,1,1.2,1.41,6.12,6.12,0,0,1,.13,2.82,14.69,14.69,0,0,1-1,3.39c-.47,1.16-1,2.27-1.45,3.32-.77,1.55-1.6,3-2.48,4.52s-1.8,2.91-2.74,4.35a5.58,5.58,0,0,0,3.44,3.11,12.83,12.83,0,0,0,4.77.54,31.4,31.4,0,0,0,8.95-2.16A62.92,62.92,0,0,0,211.51,42.71Z"/><path class="cls-1" d="M142.64,102.72c8.44,1.48,13.72-.3,14.77-4.91.56-2.42-.57-4.53-2.87-5.06a4.16,4.16,0,0,0-4.8,2.7,1.15,1.15,0,0,0,.72,1.44,1,1,0,0,0,1.06-.56l.36-.61a2.22,2.22,0,0,1,2.59-1.15,1.78,1.78,0,0,1,1.36,2.13,1,1,0,0,1-.07.25c-.56,2.42-3.83,4.1-7.2,3.66l-8-1.15c-6.18-.84-11.49,1.63-12.43,5.7a3.69,3.69,0,0,0,2.69,4.44,2,2,0,0,0,2.43-1.07.86.86,0,0,0-.55-1.06c-.12,0-.23,0-.25.07l-.49.11-.22-.06a1.7,1.7,0,0,1-1.26-2c.52-2.3,3.75-3.76,6.71-3.08a5.29,5.29,0,0,1,4.24,6.16,2,2,0,0,1-.05.24c-1.2,5.27-7.54,8.68-13.69,7.25-5.7-1.3-8.84-6.3-7.57-11.8,1.36-5.92,7.82-9.87,15.19-9.21,1.11.14,1.77-.17,1.95-.94a1.7,1.7,0,0,0-.41-1.24,7.23,7.23,0,0,1-.32-4.14c1.13-4.93,5.82-8.71,9.55-7.85,2.42.55,3.71,2.94,3.09,5.68-.56,2.42-2.78,4.56-4.64,4.6-1.14,0-1.3,0-1.43.7s.23,1,.89,1.14c3.07.7,6.7-2,7.54-5.67a6.94,6.94,0,0,0-4.75-8.59q-.32-.09-.63-.15c-5.26-1.23-11.05,2.76-12.39,8.6a9.21,9.21,0,0,0,.54,5.65c-9.35-.52-16.73,3.91-18.29,10.71-1.5,6.47,3.13,12.52,10.93,14.31s16.42-2.14,17.8-8.29a7.49,7.49,0,0,0-2.1-7"/><path class="cls-2" d="M142.64,102.72c8.44,1.48,13.72-.3,14.77-4.91.56-2.42-.57-4.53-2.87-5.06a4.16,4.16,0,0,0-4.8,2.7,1.15,1.15,0,0,0,.72,1.44,1,1,0,0,0,1.06-.56l.36-.61a2.22,2.22,0,0,1,2.59-1.15,1.78,1.78,0,0,1,1.36,2.13,1,1,0,0,1-.07.25c-.56,2.42-3.83,4.1-7.2,3.66l-8-1.15c-6.18-.84-11.49,1.63-12.43,5.7a3.69,3.69,0,0,0,2.69,4.44,2,2,0,0,0,2.43-1.07.86.86,0,0,0-.55-1.06c-.12,0-.23,0-.25.07l-.49.11-.22-.06a1.7,1.7,0,0,1-1.26-2c.52-2.3,3.75-3.76,6.71-3.08a5.29,5.29,0,0,1,4.24,6.16,2,2,0,0,1-.05.24c-1.2,5.27-7.54,8.68-13.69,7.25-5.7-1.3-8.84-6.3-7.57-11.8,1.36-5.92,7.82-9.87,15.19-9.21,1.11.14,1.77-.17,1.95-.94a1.7,1.7,0,0,0-.41-1.24,7.23,7.23,0,0,1-.32-4.14c1.13-4.93,5.82-8.71,9.55-7.85,2.42.55,3.71,2.94,3.09,5.68-.56,2.42-2.78,4.56-4.64,4.6-1.14,0-1.3,0-1.43.7s.23,1,.89,1.14c3.07.7,6.7-2,7.54-5.67a6.94,6.94,0,0,0-4.75-8.59q-.32-.09-.63-.15c-5.26-1.23-11.05,2.76-12.39,8.6a9.21,9.21,0,0,0,.54,5.65c-9.35-.52-16.73,3.91-18.29,10.71-1.5,6.47,3.13,12.52,10.93,14.31s16.42-2.14,17.8-8.29A7.51,7.51,0,0,0,142.64,102.72Z"/><path class="cls-1" d="M69.18,113.32a16.85,16.85,0,0,1,4.36-.42,7.67,7.67,0,0,1,3.6.95,5.14,5.14,0,0,1,2.2,2.62,8.42,8.42,0,0,1,.21,4.56,21.56,21.56,0,0,1-2.74,7A45.36,45.36,0,0,1,72,134.66a61.26,61.26,0,0,1-5.84,5.89c-2.08,1.82-4,3.4-5.76,4.72a92.63,92.63,0,0,1-16.46,9.58,94.71,94.71,0,0,1-18,6.17c.61.17,1.23.36,1.86.58l2.12.75a.62.62,0,0,1,.48.74.87.87,0,0,1-.07.17.63.63,0,0,1-.75.48.44.44,0,0,1-.16-.06,39.65,39.65,0,0,0-4-1.29c-1.19-.3-2.22-.54-3.11-.7a9.67,9.67,0,0,1-1.62.16H19.53c-1.17-.11-1.72-.44-1.66-1s.61-.83,1.66-.83A5.86,5.86,0,0,1,21,160a14.17,14.17,0,0,1,1.45.25,97.78,97.78,0,0,0,19.25-7.58,85.62,85.62,0,0,0,8-4.72q3.74-2.49,7-5.14,2.57-2,5.34-4.56t5.35-5.43A52,52,0,0,0,72,126.91a28.52,28.52,0,0,0,3.24-6.22q1.57-4.47,0-5.72c-1-.82-2.94-.94-5.76-.33a35.69,35.69,0,0,0-8.67,3.4q-4.43,2.4-8.08,4.81a114.29,114.29,0,0,0-9.57,6.8q-4.86,3.81-9.58,8.2a152.18,152.18,0,0,0-11.69,12,109.47,109.47,0,0,0-9.61,12.76,107.69,107.69,0,0,0-7,15.34,51.66,51.66,0,0,0-3.15,14.26.69.69,0,0,1-.64.74H1.43c-.47.06-.73-.19-.78-.74a32.6,32.6,0,0,1,.08-7.71,50.42,50.42,0,0,1,1.78-8.33,85.52,85.52,0,0,1,3.19-8.75q2-4.46,4.37-8.92,3.5-6.47,7.67-12.81t8.42-11.94q4.23-5.59,8.2-10.24t7-7.79c.5-.5,1.08-1,1.74-1.57a11.17,11.17,0,0,1,2.12-1.41,5.73,5.73,0,0,1,2.28-.67,4.43,4.43,0,0,1,2.32.5.74.74,0,0,1,.08,1.24q-3.23,3.16-7,7.16c-2.51,2.66-5.07,5.54-7.66,8.67s-5.21,6.39-7.84,9.82-5.12,7-7.5,10.61q3-3.48,6.18-6.76t6.56-6.45q4.8-4.47,9.74-8.33t9.66-6.92a91.45,91.45,0,0,1,8.2-4.85,38.11,38.11,0,0,1,8.87-3.44"/><path class="cls-1" d="M101.43,153.77a.74.74,0,0,1,.58-.08.58.58,0,0,1,.37.33.85.85,0,0,1,.09.54.65.65,0,0,1-.29.45c-1,.61-2.14,1.29-3.44,2s-2.63,1.4-4,2a32,32,0,0,1-4.15,1.49,10.56,10.56,0,0,1-3.91.47,8.16,8.16,0,0,1-3-.87A6,6,0,0,1,81.4,158a7,7,0,0,0-1.57-1.87c-.44-.3-1.25,0-2.41.79a19.39,19.39,0,0,0-3.27,3,40.27,40.27,0,0,0-2.7,3.4l-1,1.57c-.3.5-.62,1-1,1.58l-.83,1.45c-.28.47-.55.92-.83,1.36s-.5.58-1,.42a2.73,2.73,0,0,1-1.82-2,5.07,5.07,0,0,1,.42-2.9A12.26,12.26,0,0,1,67.09,162c.72-.94,1.39-1.8,2-2.57l1.83-2.32a20.09,20.09,0,0,0,1.57-2.32l.33-.67a2.69,2.69,0,0,0,.25-.74,5.1,5.1,0,0,0-1.39.62c-.64.33-1.26.69-1.87,1.07a.74.74,0,0,1-.58.09.83.83,0,0,1-.41-.33.85.85,0,0,1-.13-.54.61.61,0,0,1,.38-.46l2.4-1.28A3.59,3.59,0,0,1,74,152a1.52,1.52,0,0,1,1.32,1.32,5.6,5.6,0,0,1,0,2,11.82,11.82,0,0,1-.74,2.32L76,156.34a13.68,13.68,0,0,1,1.7-1.24,8.68,8.68,0,0,1,1.74-.83,2.5,2.5,0,0,1,1.62,0,2.14,2.14,0,0,1,1.28,1,16.19,16.19,0,0,1,.87,1.58,9.4,9.4,0,0,0,1.29,1.78,3.64,3.64,0,0,0,2.44,1,8.81,8.81,0,0,0,3.57-.45,35.13,35.13,0,0,0,4-1.54c1.32-.6,2.61-1.25,3.85-1.94s2.28-1.32,3.11-1.87"/><path class="cls-1" d="M100.85,162.81a2.53,2.53,0,0,0,1.49-.87c.66-.63,1.36-1.37,2.08-2.2s1.41-1.66,2.07-2.49,1.13-1.43,1.41-1.82a2.18,2.18,0,0,0-.54-1c-.25-.25-.62-.26-1.12,0a6.14,6.14,0,0,0-2.45,2.07,21.55,21.55,0,0,0-2,3.24c-.11.27-.31.76-.62,1.45a2.78,2.78,0,0,0-.29,1.7m35.15-9a.74.74,0,0,1,.58-.08.81.81,0,0,1,.54.87.63.63,0,0,1-.37.45q-4.47,2.66-9.12,5.31a71.32,71.32,0,0,1-9.54,4.56,34.36,34.36,0,0,1-4.56,1.41,8.44,8.44,0,0,1-3.64.17,3.74,3.74,0,0,1-2-1,4.36,4.36,0,0,1-1.08-1.78,7.8,7.8,0,0,1-.37-2.2,8.9,8.9,0,0,1,.2-2.24,20.48,20.48,0,0,1-1.65,1.95c-.61.64-1.21,1.2-1.79,1.7a5.92,5.92,0,0,1-1.7,1.08,1.75,1.75,0,0,1-1.4.08,2.11,2.11,0,0,1-1-1.16,5.16,5.16,0,0,1-.37-1.74,11.79,11.79,0,0,1,.37-3.4,13.93,13.93,0,0,1,1.7-3.27,6.73,6.73,0,0,1,2.78-2.37,3.91,3.91,0,0,1,3-.12,3.6,3.6,0,0,1,2.28,1.95,2.71,2.71,0,0,1,2.07-1.25,3.22,3.22,0,0,1,2.57,1.16.65.65,0,0,1,0,.93.27.27,0,0,1-.08.07q-1.15,1.41-2.4,3a13.4,13.4,0,0,0-1.91,3.27,7.64,7.64,0,0,0-.45,2.32c0,.77.42,1.3,1.36,1.58a4.58,4.58,0,0,0,2,.08,18.28,18.28,0,0,0,2.2-.46c.72-.19,1.39-.4,2-.62l1.37-.5a74.54,74.54,0,0,0,9.41-4.51q4.62-2.72,9-5.36Z"/><path class="cls-1" d="M142.22,155.26a16.54,16.54,0,0,1-.87,2.57c-.36.83-.79,1.72-1.29,2.66a26.05,26.05,0,0,1,2.9-2.66,8.23,8.23,0,0,1,1-.66,7.16,7.16,0,0,1,1.24-.54,4.05,4.05,0,0,1,1.29-.21,1.58,1.58,0,0,1,1.12.5,1.73,1.73,0,0,1,.49,1,3.44,3.44,0,0,1,0,1.28,9.38,9.38,0,0,1-.33,1.29c-.14.41-.26.79-.37,1.12a19.82,19.82,0,0,0-.79,2.73c-.14.72.07,1.16.62,1.33a2.9,2.9,0,0,0,1.49-.08c.61-.17,1.25-.38,1.91-.63l2-.78a13.71,13.71,0,0,0,1.45-.67q4.56-2.07,9-4.64t8.6-5.1a.7.7,0,0,1,.58-.08.83.83,0,0,1,.54.87.58.58,0,0,1-.38.45c-2.81,1.77-5.72,3.5-8.7,5.19s-6,3.24-9,4.68c-.44.17-1,.4-1.61.7a18.32,18.32,0,0,1-2,.83A19.15,19.15,0,0,1,149,167a5,5,0,0,1-2,.08,2.12,2.12,0,0,1-1.7-1,3.87,3.87,0,0,1-.45-1.86,9.28,9.28,0,0,1,.29-2.16c.19-.74.37-1.39.54-1.94.27-1.06.26-1.7,0-1.95s-.93,0-1.87.78a58.68,58.68,0,0,0-4.64,4.69,39.17,39.17,0,0,0-4.15,5.68.74.74,0,0,1-.91.33,3.46,3.46,0,0,1-1.53-1.2,2.78,2.78,0,0,1-.46-1.58,4.93,4.93,0,0,1,.33-1.74,11.62,11.62,0,0,1,.83-1.7,36.45,36.45,0,0,1,2.7-3.61,43.43,43.43,0,0,0,2.86-3.77c.27-.38.55-.81.83-1.28a5.06,5.06,0,0,0,.58-1.45,5,5,0,0,0-1.54.58c-.63.33-1.25.69-1.86,1.07a.74.74,0,0,1-.58.09.86.86,0,0,1-.42-.33.74.74,0,0,1-.12-.54.62.62,0,0,1,.37-.46l2.4-1.28A3.59,3.59,0,0,1,141,152a1.52,1.52,0,0,1,1.33,1.32,6.1,6.1,0,0,1,0,2"/><path class="cls-1" d="M171.07,162.81a2.53,2.53,0,0,0,1.49-.87c.66-.63,1.35-1.37,2.07-2.2s1.41-1.66,2.08-2.49,1.13-1.43,1.4-1.82a2.26,2.26,0,0,0-.53-1c-.25-.25-.63-.26-1.12,0A6.07,6.07,0,0,0,174,156.5a19.61,19.61,0,0,0-2,3.24c-.11.27-.32.76-.62,1.45a2.72,2.72,0,0,0-.29,1.7m35.15-9a.7.7,0,0,1,.58-.08.75.75,0,0,1,.41.33.8.8,0,0,1,.13.54.58.58,0,0,1-.38.45q-4.47,2.66-9.12,5.31a71.2,71.2,0,0,1-9.53,4.56,34.36,34.36,0,0,1-4.56,1.41,8.48,8.48,0,0,1-3.65.17,3.89,3.89,0,0,1-2-1,4.45,4.45,0,0,1-1.07-1.78,8.6,8.6,0,0,1-.38-2.2,9.4,9.4,0,0,1,.21-2.24,19.21,19.21,0,0,1-1.66,1.95,22,22,0,0,1-1.78,1.7,6.06,6.06,0,0,1-1.7,1.08,1.78,1.78,0,0,1-1.41.08,2.11,2.11,0,0,1-1-1.16,5.42,5.42,0,0,1-.38-1.74,12.54,12.54,0,0,1,.38-3.4,13.56,13.56,0,0,1,1.7-3.27,6.77,6.77,0,0,1,2.77-2.37,4,4,0,0,1,3-.12,3.6,3.6,0,0,1,2.28,1.95,2.71,2.71,0,0,1,2.07-1.25,3.22,3.22,0,0,1,2.57,1.16.65.65,0,0,1,0,.93.27.27,0,0,1-.08.07c-.77.94-1.58,2-2.41,3a13.89,13.89,0,0,0-1.9,3.27,7.71,7.71,0,0,0-.46,2.32c0,.77.43,1.3,1.37,1.58a4.58,4.58,0,0,0,1.95.08,18.28,18.28,0,0,0,2.2-.46c.71-.19,1.39-.4,2-.62s1.09-.39,1.36-.5a74.54,74.54,0,0,0,9.41-4.51q4.67-2.72,9.05-5.36Z"/><path class="cls-1" d="M237,153.77a.72.72,0,0,1,1,.23v0a.74.74,0,0,1,.12.54.57.57,0,0,1-.37.45,38.09,38.09,0,0,1-7.29,3.69,24.38,24.38,0,0,1-5.52,1.37,13.81,13.81,0,0,1-4.06-.08c-1.13-.22-2.1-.44-2.94-.66-.67-.17-1.23-.29-1.7-.38a1.45,1.45,0,0,0-1.2.29,18.6,18.6,0,0,0-2,1.87c-.74.8-1.54,1.67-2.37,2.61-.66.77-1.32,1.52-2,2.24s-1.3,1.35-1.91,1.9a14.43,14.43,0,0,1-1.58,1.33,1.84,1.84,0,0,1-1.82.42,1.74,1.74,0,0,1-1-1.33A11.38,11.38,0,0,1,202,166a17.65,17.65,0,0,1,.08-2.41,10.17,10.17,0,0,1,.29-1.65,24.11,24.11,0,0,1,1.37-4.32,15.76,15.76,0,0,1,1.78-3.15,3.45,3.45,0,0,1,2.16-1.36,3.12,3.12,0,0,1,2.44.7.76.76,0,0,1,.11,1.06l0,0a32.47,32.47,0,0,0-3.77,5.1,18.85,18.85,0,0,0-2.28,5.84,5.29,5.29,0,0,0-.29,1.25,2.37,2.37,0,0,0,0,1.24,9.37,9.37,0,0,0,1.9-1.41,24.46,24.46,0,0,0,1.91-1.9c.63-.72,1.31-1.46,2-2.24s1.55-1.81,2.32-2.61a23.75,23.75,0,0,1,2.07-1.94,2.4,2.4,0,0,1,1.87-.75,10.43,10.43,0,0,1,2.28.5c.77.22,1.7.44,2.78.66a12.43,12.43,0,0,0,3.85.08,22.65,22.65,0,0,0,5.18-1.32,38.4,38.4,0,0,0,6.92-3.57"/><path class="cls-2" d="M69.18,113.32a16.85,16.85,0,0,1,4.36-.42,7.67,7.67,0,0,1,3.6.95,5.14,5.14,0,0,1,2.2,2.62,8.42,8.42,0,0,1,.21,4.56,21.56,21.56,0,0,1-2.74,7A45.36,45.36,0,0,1,72,134.66a61.26,61.26,0,0,1-5.84,5.89c-2.08,1.82-4,3.4-5.76,4.72a92.63,92.63,0,0,1-16.46,9.58,94.71,94.71,0,0,1-18,6.17c.61.17,1.23.36,1.86.58l2.12.75a.62.62,0,0,1,.48.74.87.87,0,0,1-.07.17.63.63,0,0,1-.75.48.44.44,0,0,1-.16-.06,39.65,39.65,0,0,0-4-1.29c-1.19-.3-2.22-.54-3.11-.7a9.67,9.67,0,0,1-1.62.16H19.53c-1.17-.11-1.72-.44-1.66-1s.61-.83,1.66-.83A5.86,5.86,0,0,1,21,160a14.17,14.17,0,0,1,1.45.25,97.78,97.78,0,0,0,19.25-7.58,85.62,85.62,0,0,0,8-4.72q3.74-2.49,7-5.14,2.57-2,5.34-4.56t5.35-5.43A52,52,0,0,0,72,126.91a28.52,28.52,0,0,0,3.24-6.22q1.57-4.47,0-5.72c-1-.82-2.94-.94-5.76-.33a35.69,35.69,0,0,0-8.67,3.4q-4.43,2.4-8.08,4.81a114.29,114.29,0,0,0-9.57,6.8q-4.86,3.81-9.58,8.2a152.18,152.18,0,0,0-11.69,12,109.47,109.47,0,0,0-9.61,12.76,107.69,107.69,0,0,0-7,15.34,51.66,51.66,0,0,0-3.15,14.26.69.69,0,0,1-.64.74H1.43c-.47.06-.73-.19-.78-.74a32.6,32.6,0,0,1,.08-7.71,50.42,50.42,0,0,1,1.78-8.33,85.52,85.52,0,0,1,3.19-8.75q2-4.46,4.37-8.92,3.5-6.47,7.67-12.81t8.42-11.94q4.23-5.59,8.2-10.24t7-7.79c.5-.5,1.08-1,1.74-1.57a11.17,11.17,0,0,1,2.12-1.41,5.73,5.73,0,0,1,2.28-.67,4.43,4.43,0,0,1,2.32.5.74.74,0,0,1,.08,1.24q-3.23,3.16-7,7.16c-2.51,2.66-5.07,5.54-7.66,8.67s-5.21,6.39-7.84,9.82-5.12,7-7.5,10.61q3-3.48,6.18-6.76t6.56-6.45q4.8-4.47,9.74-8.33t9.66-6.92a91.45,91.45,0,0,1,8.2-4.85A38.33,38.33,0,0,1,69.18,113.32Z"/><path class="cls-2" d="M101.43,153.77a.74.74,0,0,1,.58-.08.58.58,0,0,1,.37.33.85.85,0,0,1,.09.54.65.65,0,0,1-.29.45c-1,.61-2.14,1.29-3.44,2s-2.63,1.4-4,2a32,32,0,0,1-4.15,1.49,10.56,10.56,0,0,1-3.91.47,8.16,8.16,0,0,1-3-.87A6,6,0,0,1,81.4,158a7,7,0,0,0-1.57-1.87c-.44-.3-1.25,0-2.41.79a19.39,19.39,0,0,0-3.27,3,40.27,40.27,0,0,0-2.7,3.4l-1,1.57c-.3.5-.62,1-1,1.58l-.83,1.45c-.28.47-.55.92-.83,1.36s-.5.58-1,.42a2.73,2.73,0,0,1-1.82-2,5.07,5.07,0,0,1,.42-2.9A12.26,12.26,0,0,1,67.09,162c.72-.94,1.39-1.8,2-2.57l1.83-2.32a20.09,20.09,0,0,0,1.57-2.32l.33-.67a2.69,2.69,0,0,0,.25-.74,5.1,5.1,0,0,0-1.39.62c-.64.33-1.26.69-1.87,1.07a.74.74,0,0,1-.58.09.83.83,0,0,1-.41-.33.85.85,0,0,1-.13-.54.61.61,0,0,1,.38-.46l2.4-1.28A3.59,3.59,0,0,1,74,152a1.52,1.52,0,0,1,1.32,1.32,5.6,5.6,0,0,1,0,2,11.82,11.82,0,0,1-.74,2.32L76,156.34a13.68,13.68,0,0,1,1.7-1.24,8.68,8.68,0,0,1,1.74-.83,2.5,2.5,0,0,1,1.62,0,2.14,2.14,0,0,1,1.28,1,16.19,16.19,0,0,1,.87,1.58,9.4,9.4,0,0,0,1.29,1.78,3.64,3.64,0,0,0,2.44,1,8.81,8.81,0,0,0,3.57-.45,35.13,35.13,0,0,0,4-1.54c1.32-.6,2.61-1.25,3.85-1.94S100.6,154.32,101.43,153.77Z"/><path class="cls-2" d="M100.85,162.81a2.53,2.53,0,0,0,1.49-.87c.66-.63,1.36-1.37,2.08-2.2s1.41-1.66,2.07-2.49,1.13-1.43,1.41-1.82a2.18,2.18,0,0,0-.54-1c-.25-.25-.62-.26-1.12,0a6.14,6.14,0,0,0-2.45,2.07,21.55,21.55,0,0,0-2,3.24c-.11.27-.31.76-.62,1.45A2.76,2.76,0,0,0,100.85,162.81Zm35.15-9a.74.74,0,0,1,.58-.08.81.81,0,0,1,.54.87.63.63,0,0,1-.37.45q-4.49,2.65-9.12,5.31a71.32,71.32,0,0,1-9.54,4.56,34.36,34.36,0,0,1-4.56,1.41,8.44,8.44,0,0,1-3.64.17,3.74,3.74,0,0,1-2-1,4.36,4.36,0,0,1-1.08-1.78,7.8,7.8,0,0,1-.37-2.2,8.9,8.9,0,0,1,.2-2.24,20.48,20.48,0,0,1-1.65,1.95c-.61.64-1.21,1.2-1.79,1.7a5.92,5.92,0,0,1-1.7,1.08,1.75,1.75,0,0,1-1.4.08,2.11,2.11,0,0,1-1-1.16,5.16,5.16,0,0,1-.37-1.74,11.79,11.79,0,0,1,.37-3.4,13.93,13.93,0,0,1,1.7-3.27,6.73,6.73,0,0,1,2.78-2.37,3.91,3.91,0,0,1,3-.12,3.6,3.6,0,0,1,2.28,1.95,2.71,2.71,0,0,1,2.07-1.25,3.22,3.22,0,0,1,2.57,1.16.65.65,0,0,1,0,.93.27.27,0,0,1-.08.07q-1.15,1.41-2.4,3a13.4,13.4,0,0,0-1.91,3.27,7.64,7.64,0,0,0-.45,2.32c0,.77.42,1.3,1.36,1.58a4.58,4.58,0,0,0,2,.08,18.28,18.28,0,0,0,2.2-.46c.72-.19,1.39-.4,2-.62l1.37-.5a74.54,74.54,0,0,0,9.41-4.51q4.65-2.62,9-5.28Z"/><path class="cls-2" d="M142.22,155.26a16.54,16.54,0,0,1-.87,2.57c-.36.83-.79,1.72-1.29,2.66a26.05,26.05,0,0,1,2.9-2.66,8.23,8.23,0,0,1,1-.66,7.16,7.16,0,0,1,1.24-.54,4.05,4.05,0,0,1,1.29-.21,1.58,1.58,0,0,1,1.12.5,1.73,1.73,0,0,1,.49,1,3.44,3.44,0,0,1,0,1.28,9.38,9.38,0,0,1-.33,1.29c-.14.41-.26.79-.37,1.12a19.82,19.82,0,0,0-.79,2.73c-.14.72.07,1.16.62,1.33a2.9,2.9,0,0,0,1.49-.08c.61-.17,1.25-.38,1.91-.63l2-.78a13.71,13.71,0,0,0,1.45-.67q4.56-2.07,9-4.64t8.6-5.1a.7.7,0,0,1,.58-.08.83.83,0,0,1,.54.87.58.58,0,0,1-.38.45c-2.81,1.77-5.72,3.5-8.7,5.19s-6,3.24-9,4.68c-.44.17-1,.4-1.61.7a18.32,18.32,0,0,1-2,.83A19.15,19.15,0,0,1,149,167a5,5,0,0,1-2,.08,2.12,2.12,0,0,1-1.7-1,3.87,3.87,0,0,1-.45-1.86,9.28,9.28,0,0,1,.29-2.16c.19-.74.37-1.39.54-1.94.27-1.06.26-1.7,0-1.95s-.93,0-1.87.78a58.68,58.68,0,0,0-4.64,4.69,39.17,39.17,0,0,0-4.15,5.68.74.74,0,0,1-.91.33,3.46,3.46,0,0,1-1.53-1.2,2.78,2.78,0,0,1-.46-1.58,4.93,4.93,0,0,1,.33-1.74,11.62,11.62,0,0,1,.83-1.7,36.45,36.45,0,0,1,2.7-3.61,43.43,43.43,0,0,0,2.86-3.77c.27-.38.55-.81.83-1.28a5.06,5.06,0,0,0,.58-1.45,5,5,0,0,0-1.54.58c-.63.33-1.25.69-1.86,1.07a.74.74,0,0,1-.58.09.86.86,0,0,1-.42-.33.74.74,0,0,1-.12-.54.62.62,0,0,1,.37-.46l2.4-1.28A3.59,3.59,0,0,1,141,152a1.52,1.52,0,0,1,1.33,1.32A6,6,0,0,1,142.22,155.26Z"/><path class="cls-2" d="M171.07,162.81a2.53,2.53,0,0,0,1.49-.87c.66-.63,1.35-1.37,2.07-2.2s1.41-1.66,2.08-2.49,1.13-1.43,1.4-1.82a2.26,2.26,0,0,0-.53-1c-.25-.25-.63-.26-1.12,0A6.07,6.07,0,0,0,174,156.5a19.61,19.61,0,0,0-2,3.24c-.11.27-.32.76-.62,1.45A2.76,2.76,0,0,0,171.07,162.81Zm35.15-9a.7.7,0,0,1,.58-.08.75.75,0,0,1,.41.33.8.8,0,0,1,.13.54.58.58,0,0,1-.38.45q-4.47,2.65-9.12,5.31a71.2,71.2,0,0,1-9.53,4.56,34.36,34.36,0,0,1-4.56,1.41,8.48,8.48,0,0,1-3.65.17,3.89,3.89,0,0,1-2-1,4.45,4.45,0,0,1-1.07-1.78,8.6,8.6,0,0,1-.38-2.2,9.4,9.4,0,0,1,.21-2.24,19.21,19.21,0,0,1-1.66,1.95,22,22,0,0,1-1.78,1.7,6.06,6.06,0,0,1-1.7,1.08,1.78,1.78,0,0,1-1.41.08,2.11,2.11,0,0,1-1-1.16,5.42,5.42,0,0,1-.38-1.74,12.54,12.54,0,0,1,.38-3.4,13.56,13.56,0,0,1,1.7-3.27,6.77,6.77,0,0,1,2.77-2.37,4,4,0,0,1,3-.12,3.6,3.6,0,0,1,2.28,1.95,2.71,2.71,0,0,1,2.07-1.25,3.22,3.22,0,0,1,2.57,1.16.65.65,0,0,1,0,.93.27.27,0,0,1-.08.07c-.77.94-1.58,2-2.41,3a13.89,13.89,0,0,0-1.9,3.27,7.71,7.71,0,0,0-.46,2.32c0,.77.43,1.3,1.37,1.58a4.58,4.58,0,0,0,1.95.08,18.28,18.28,0,0,0,2.2-.46c.71-.19,1.39-.4,2-.62s1.09-.39,1.36-.5a74.54,74.54,0,0,0,9.41-4.51q4.7-2.62,9.08-5.28Z"/><path class="cls-2" d="M237,153.77a.72.72,0,0,1,1,.23v0a.74.74,0,0,1,.12.54.57.57,0,0,1-.37.45,38.09,38.09,0,0,1-7.29,3.69,24.38,24.38,0,0,1-5.52,1.37,13.81,13.81,0,0,1-4.06-.08c-1.13-.22-2.1-.44-2.94-.66-.67-.17-1.23-.29-1.7-.38a1.45,1.45,0,0,0-1.2.29,18.6,18.6,0,0,0-2,1.87c-.74.8-1.54,1.67-2.37,2.61-.66.77-1.32,1.52-2,2.24s-1.3,1.35-1.91,1.9a14.43,14.43,0,0,1-1.58,1.33,1.84,1.84,0,0,1-1.82.42,1.74,1.74,0,0,1-1-1.33A11.38,11.38,0,0,1,202,166a17.65,17.65,0,0,1,.08-2.41,10.17,10.17,0,0,1,.29-1.65,24.11,24.11,0,0,1,1.37-4.32,15.76,15.76,0,0,1,1.78-3.15,3.45,3.45,0,0,1,2.16-1.36,3.12,3.12,0,0,1,2.44.7.76.76,0,0,1,.11,1.06l0,0a32.47,32.47,0,0,0-3.77,5.1,18.85,18.85,0,0,0-2.28,5.84,5.29,5.29,0,0,0-.29,1.25,2.37,2.37,0,0,0,0,1.24,9.37,9.37,0,0,0,1.9-1.41,24.46,24.46,0,0,0,1.91-1.9c.63-.72,1.31-1.46,2-2.24s1.55-1.81,2.32-2.61a23.75,23.75,0,0,1,2.07-1.94,2.4,2.4,0,0,1,1.87-.75,10.43,10.43,0,0,1,2.28.5c.77.22,1.7.44,2.78.66a12.43,12.43,0,0,0,3.85.08,22.65,22.65,0,0,0,5.18-1.32A38.93,38.93,0,0,0,237,153.77Z"/></g></g></g></g></svg>